<?xml version="1.0" encoding="utf-8"?>
<!-- Generator: Adobe Illustrator 26.0.1, SVG Export Plug-In . SVG Version: 6.00 Build 0)  -->
<svg version="1.1" id="Layer_1" xmlns="http://www.w3.org/2000/svg" xmlns:xlink="http://www.w3.org/1999/xlink" x="0px" y="0px"
	 viewBox="0 0 724.85 125" style="enable-background:new 0 0 724.85 125;" xml:space="preserve">
<style type="text/css">
	.st0{fill:#232323;}
	.st1{font-family:'Poppins-Bold';}
	.st2{font-size:124.6629px;}
</style>
<g>
	<path class="st0" d="M12,42.82c0-7.9,0-15.8,0-23.7c0-3.51,2.19-5.71,5.71-5.27c7.02,0,14.05,0,21.07,0c4.39,0,5.71,1.32,5.71,5.71
		c0,7.02,0,13.61,0,20.63c0,3.51,2.19,6.14,6.14,6.14c6.58-0.44,12.73,0,19.31,0c0.44,0,1.32,0,1.76,0c3.07,0,4.83,1.76,4.83,4.83
		c0,7.02,0,13.61,0,20.63c0,0.88,0,1.76,0.44,2.63c0.44,2.63,2.19,3.95,4.83,3.95c5.71,0,11.41,0,16.68,0c1.32,0,2.63,0,3.95,0
		c4.83,0,6.58,1.76,6.58,6.58c0,6.58,0,13.17,0,19.75c0,0.88,0,1.76-0.44,2.63c-0.44,2.19-2.19,3.51-4.39,3.95
		c-0.44,0-1.32,0-1.76,0c-14.92,0-30.29,0-45.21,0c-0.44,0-0.88,0-0.88,0c-3.51,0-5.71-1.76-5.71-5.71c0-8.78,0-17.56,0-26.33
		c0-0.88,0-1.32,0-2.19c0-2.63-1.76-4.39-4.39-4.83c-0.88,0-2.19,0-3.07,0c-8.34,0-17.12,0-25.46,0c-3.95,0-5.27-1.32-5.27-5.27
		C12,58.62,12,50.72,12,42.82z"/>
	<path class="st0" d="M79.59,13.85c7.9,0,15.8,0,23.7,0c3.95,0,5.71,2.63,5.71,5.71c0,15.8,0,31.16,0,46.96
		c0,3.95-1.76,5.71-5.71,5.71c-5.27,0-10.1,0-15.36,0c-3.51,0-5.27-1.76-5.27-5.71c0-7.02,0-13.61,0-20.63
		c0-4.39-1.32-5.71-5.71-5.71c-7.02,0-13.61,0-20.63,0c-3.95,0-5.71-1.76-5.71-5.71c0-4.83,0-9.66,0-14.48
		c0-3.95,1.76-5.71,5.71-5.71C64.23,13.85,72.13,13.85,79.59,13.85z"/>
	<path class="st0" d="M12,94.17c0-3.51,0-7.46,0-10.97c0-3.51,1.32-4.83,4.83-4.83c7.46,0,14.92,0,22.38,0
		c3.51,0,5.27,2.63,4.83,5.27c0,7.46,0,14.48,0,21.95c0,3.51-1.76,5.27-5.27,5.27c-7.02,0-14.48,0-21.51,0
		c-3.51,0-5.27-1.76-5.27-5.27C12,101.63,12,97.68,12,94.17z"/>
</g>
<text transform="matrix(1 0 0 1 124 104.7588)" class="st0 st1 st2">WEABERS</text>
</svg>
