<svg width="1440" height="784" viewBox="0 0 1440 784" fill="none" xmlns="http://www.w3.org/2000/svg">
<path d="M341.62 713.6H343.56C345.16 713.6 345.72 715.26 346.36 716.92C346.62 717.5 346.86 718.02 347.1 718.52C347.6 719.5 348.58 720.24 349.84 720.24C350.34 720.24 350.8 720.16 351.24 720V719.3C350.26 719.32 349.5 718.46 348.94 717.32C348.2 715.66 347.24 713.38 345.28 713.06V712.96C347.28 712.4 348.56 711.14 348.56 709.4C348.56 706.66 346.12 705.8 343.66 705.8H337.66V706.5L339.58 707V718.8L337.66 719.3V720H343.94V719.3L341.62 718.76V713.6ZM341.62 712.6V706.8H343.2C345.2 706.8 346.4 707.7 346.4 709.52C346.4 710.5 346.06 711.26 345.4 711.8C344.74 712.34 343.92 712.6 342.96 712.6H341.62ZM359.354 718.38C358.374 718.74 357.434 718.92 356.494 718.92C354.314 718.92 353.314 717.72 353.294 715.18H359.694C359.994 713.5 359.774 712.18 359.074 711.22C358.374 710.24 357.314 709.76 355.914 709.76C354.654 709.76 353.554 710.24 352.614 711.18C351.694 712.12 351.234 713.46 351.234 715.2C351.234 716.82 351.674 718.06 352.574 718.94C353.474 719.8 354.614 720.24 355.954 720.24C357.174 720.24 358.574 719.78 359.534 719.04L359.354 718.38ZM355.934 710.64C357.154 710.64 357.954 711.86 357.794 714.1L353.314 714.32C353.494 711.92 354.494 710.64 355.934 710.64ZM361.569 719.62C362.509 720.04 363.569 720.24 364.729 720.24C365.869 720.24 366.809 719.98 367.569 719.48C368.329 718.96 368.709 718.2 368.709 717.2C368.709 715.86 367.849 715 366.749 714.54C365.189 713.88 363.189 713.48 363.189 712.1C363.189 711.54 363.509 711.12 364.149 710.86C364.789 710.58 365.569 710.54 366.489 710.74L367.469 712.86H368.169V710.38C367.269 709.96 366.249 709.76 365.129 709.76C364.149 709.76 363.309 710 362.609 710.48C361.909 710.96 361.569 711.68 361.569 712.64C361.569 713.98 362.409 714.86 363.449 715.32C364.969 715.94 366.889 716.38 366.889 717.7C366.889 718.4 366.529 718.88 365.809 719.18C365.089 719.46 364.229 719.5 363.249 719.3L362.269 717.14H361.569V719.62ZM378.573 718.38C377.593 718.74 376.653 718.92 375.713 718.92C373.533 718.92 372.533 717.72 372.513 715.18H378.913C379.213 713.5 378.993 712.18 378.293 711.22C377.593 710.24 376.533 709.76 375.133 709.76C373.873 709.76 372.773 710.24 371.833 711.18C370.913 712.12 370.453 713.46 370.453 715.2C370.453 716.82 370.893 718.06 371.793 718.94C372.693 719.8 373.833 720.24 375.173 720.24C376.393 720.24 377.793 719.78 378.753 719.04L378.573 718.38ZM375.153 710.64C376.373 710.64 377.173 711.86 377.013 714.1L372.533 714.32C372.713 711.92 373.713 710.64 375.153 710.64ZM386.568 714.88V717.84C385.768 718.5 384.948 718.84 384.108 718.84C383.168 718.84 382.708 718.38 382.708 717.44C382.708 716.06 384.228 714.98 386.568 714.88ZM390.068 719.06C388.788 719.24 388.428 718.98 388.428 718.1V713.8C388.428 711.06 387.008 709.76 384.948 709.76C383.768 709.76 382.508 710.16 381.148 710.94L381.368 711.66C382.568 711.2 383.568 710.96 384.348 710.96C385.828 710.96 386.568 711.98 386.568 714.04C382.668 714.28 380.648 715.68 380.648 717.74C380.648 719.26 381.768 720.24 383.308 720.24C384.428 720.24 385.748 719.68 386.628 718.64L386.728 718.7C386.868 719.64 387.548 720.24 388.448 720.24C389.048 720.24 389.588 720.04 390.068 719.66V719.06ZM394.238 711.28V709.92L394.038 709.76L390.878 710.44V711.1L392.398 711.54V718.8L390.878 719.3V720H396.158V719.3L394.238 718.8V712.3C394.818 711.74 395.438 711.46 396.098 711.46C396.758 711.46 397.278 711.7 397.618 712.18L398.138 712.04V709.84C396.678 709.54 395.218 710.22 394.358 711.34L394.238 711.28ZM401.4 714.88C401.4 713.26 401.78 712.14 402.52 711.5C403.26 710.84 404.2 710.6 405.32 710.74L406.6 713.26H407.3V710.28C406.4 709.94 405.46 709.76 404.52 709.76C402.98 709.76 401.74 710.24 400.78 711.18C399.82 712.12 399.34 713.38 399.34 715C399.34 716.62 399.82 717.9 400.78 718.84C401.76 719.78 402.92 720.24 404.26 720.24C405.56 720.24 406.68 719.84 407.64 719.04L407.46 718.38C406.56 718.74 405.68 718.92 404.8 718.92C402.62 718.92 401.4 717.36 401.4 714.88ZM412.007 703.92L411.807 703.76L408.647 704.44V705.1L410.167 705.54V718.8L408.647 719.3V720H413.527V719.3L412.007 718.8V712.1C412.907 711.42 413.847 711.08 414.827 711.08C416.047 711.08 416.667 711.86 416.667 713.42V718.8L415.147 719.3V720H420.027V719.3L418.507 718.8V713.14C418.507 710.8 417.207 709.76 415.367 709.76C414.187 709.76 413.107 710.22 412.127 711.14L412.007 711.1V703.92ZM421.914 719.62C422.514 719.62 422.934 719.84 423.154 720.3C423.374 720.74 423.354 721.24 423.094 721.78C422.834 722.32 422.394 722.72 421.774 722.98L422.054 723.6C423.654 723.14 424.854 721.76 424.854 719.94C424.854 718.32 423.954 717.46 422.974 717.46C422.354 717.46 421.914 717.72 421.674 718.22C421.454 718.72 421.534 719.18 421.914 719.62ZM438.087 718.64C436.307 719.28 434.747 719.14 434.687 717.3V711.24H437.947V710.2H434.687V707.26H434.007L432.847 710.2H431.127V711.24H432.847V717.12C432.847 719.18 433.867 720.24 435.567 720.24C436.587 720.24 437.487 719.92 438.267 719.3L438.087 718.64ZM447.792 718.38C446.812 718.74 445.872 718.92 444.932 718.92C442.752 718.92 441.752 717.72 441.732 715.18H448.132C448.432 713.5 448.212 712.18 447.512 711.22C446.812 710.24 445.752 709.76 444.352 709.76C443.092 709.76 441.992 710.24 441.052 711.18C440.132 712.12 439.672 713.46 439.672 715.2C439.672 716.82 440.112 718.06 441.012 718.94C441.912 719.8 443.052 720.24 444.392 720.24C445.612 720.24 447.012 719.78 447.972 719.04L447.792 718.38ZM444.372 710.64C445.592 710.64 446.392 711.86 446.232 714.1L441.752 714.32C441.932 711.92 442.932 710.64 444.372 710.64ZM450.007 719.62C450.947 720.04 452.007 720.24 453.167 720.24C454.307 720.24 455.247 719.98 456.007 719.48C456.767 718.96 457.147 718.2 457.147 717.2C457.147 715.86 456.287 715 455.187 714.54C453.627 713.88 451.627 713.48 451.627 712.1C451.627 711.54 451.947 711.12 452.587 710.86C453.227 710.58 454.007 710.54 454.927 710.74L455.907 712.86H456.607V710.38C455.707 709.96 454.687 709.76 453.567 709.76C452.587 709.76 451.747 710 451.047 710.48C450.347 710.96 450.007 711.68 450.007 712.64C450.007 713.98 450.847 714.86 451.887 715.32C453.407 715.94 455.327 716.38 455.327 717.7C455.327 718.4 454.967 718.88 454.247 719.18C453.527 719.46 452.667 719.5 451.687 719.3L450.707 717.14H450.007V719.62ZM465.45 718.64C463.67 719.28 462.11 719.14 462.05 717.3V711.24H465.31V710.2H462.05V707.26H461.37L460.21 710.2H458.49V711.24H460.21V717.12C460.21 719.18 461.23 720.24 462.93 720.24C463.95 720.24 464.85 719.92 465.63 719.3L465.45 718.64ZM478.463 714.88V717.84C477.663 718.5 476.843 718.84 476.003 718.84C475.063 718.84 474.603 718.38 474.603 717.44C474.603 716.06 476.123 714.98 478.463 714.88ZM481.963 719.06C480.683 719.24 480.323 718.98 480.323 718.1V713.8C480.323 711.06 478.903 709.76 476.843 709.76C475.663 709.76 474.403 710.16 473.043 710.94L473.263 711.66C474.463 711.2 475.463 710.96 476.243 710.96C477.723 710.96 478.463 711.98 478.463 714.04C474.563 714.28 472.543 715.68 472.543 717.74C472.543 719.26 473.663 720.24 475.203 720.24C476.323 720.24 477.643 719.68 478.523 718.64L478.623 718.7C478.763 719.64 479.443 720.24 480.343 720.24C480.943 720.24 481.483 720.04 481.963 719.66V719.06ZM486.132 709.92L485.932 709.76L482.772 710.44V711.1L484.292 711.54V718.8L482.772 719.3V720H487.652V719.3L486.132 718.8V712.1C487.032 711.42 487.972 711.08 488.952 711.08C490.172 711.08 490.792 711.86 490.792 713.42V718.8L489.272 719.3V720H494.152V719.3L492.632 718.8V713.14C492.632 710.8 491.332 709.76 489.492 709.76C488.312 709.76 487.232 710.22 486.252 711.14L486.132 711.1V709.92ZM502.715 717.9C501.795 718.58 500.895 718.92 499.995 718.92C498.415 718.92 497.415 717.54 497.415 714.96C497.415 712.26 498.755 710.84 500.495 710.84C501.335 710.84 502.075 710.98 502.715 711.28V717.9ZM502.715 710.34C501.955 709.96 501.115 709.76 500.175 709.76C498.875 709.76 497.755 710.24 496.795 711.18C495.835 712.12 495.355 713.4 495.355 715.04C495.355 716.66 495.735 717.92 496.495 718.86C497.275 719.78 498.215 720.24 499.355 720.24C500.515 720.24 501.595 719.78 502.595 718.86L502.715 718.9V720.08L502.915 720.24L506.075 719.56V718.9L504.555 718.46V703.92L504.355 703.76L501.195 704.44V705.1L502.715 705.54V710.34ZM522.782 710.7V710H518.842V710.7L520.422 711.24L518.522 716.12L517.702 718.18H517.622L516.822 716.12L514.842 711.2L516.402 710.7V710H511.582V710.7L512.822 711.2L516.462 720.12H517.922L521.602 711.24L522.782 710.7ZM529.303 714.88V717.84C528.503 718.5 527.683 718.84 526.843 718.84C525.903 718.84 525.443 718.38 525.443 717.44C525.443 716.06 526.963 714.98 529.303 714.88ZM532.803 719.06C531.523 719.24 531.163 718.98 531.163 718.1V713.8C531.163 711.06 529.743 709.76 527.683 709.76C526.503 709.76 525.243 710.16 523.883 710.94L524.103 711.66C525.303 711.2 526.303 710.96 527.083 710.96C528.563 710.96 529.303 711.98 529.303 714.04C525.403 714.28 523.383 715.68 523.383 717.74C523.383 719.26 524.503 720.24 526.043 720.24C527.163 720.24 528.483 719.68 529.363 718.64L529.463 718.7C529.603 719.64 530.283 720.24 531.183 720.24C531.783 720.24 532.323 720.04 532.803 719.66V719.06ZM536.772 703.92L536.572 703.76L533.412 704.44V705.1L534.932 705.54V718.8L533.412 719.3V720H538.292V719.3L536.772 718.8V703.92ZM542.656 709.92L542.456 709.76L539.296 710.44V711.1L540.816 711.54V718.8L539.296 719.3V720H544.176V719.3L542.656 718.8V709.92ZM540.476 706.56C540.476 707.28 541.016 707.8 541.736 707.8C542.456 707.8 542.996 707.28 542.996 706.56C542.996 705.82 542.456 705.3 541.736 705.3C541.016 705.3 540.476 705.82 540.476 706.56ZM552.93 717.9C552.01 718.58 551.11 718.92 550.21 718.92C548.63 718.92 547.63 717.54 547.63 714.96C547.63 712.26 548.97 710.84 550.71 710.84C551.55 710.84 552.29 710.98 552.93 711.28V717.9ZM552.93 710.34C552.17 709.96 551.33 709.76 550.39 709.76C549.09 709.76 547.97 710.24 547.01 711.18C546.05 712.12 545.57 713.4 545.57 715.04C545.57 716.66 545.95 717.92 546.71 718.86C547.49 719.78 548.43 720.24 549.57 720.24C550.73 720.24 551.81 719.78 552.81 718.86L552.93 718.9V720.08L553.13 720.24L556.29 719.56V718.9L554.77 718.46V703.92L554.57 703.76L551.41 704.44V705.1L552.93 705.54V710.34ZM563.209 714.88V717.84C562.409 718.5 561.589 718.84 560.749 718.84C559.809 718.84 559.349 718.38 559.349 717.44C559.349 716.06 560.869 714.98 563.209 714.88ZM566.709 719.06C565.429 719.24 565.069 718.98 565.069 718.1V713.8C565.069 711.06 563.649 709.76 561.589 709.76C560.409 709.76 559.149 710.16 557.789 710.94L558.009 711.66C559.209 711.2 560.209 710.96 560.989 710.96C562.469 710.96 563.209 711.98 563.209 714.04C559.309 714.28 557.289 715.68 557.289 717.74C557.289 719.26 558.409 720.24 559.949 720.24C561.069 720.24 562.389 719.68 563.269 718.64L563.369 718.7C563.509 719.64 564.189 720.24 565.089 720.24C565.689 720.24 566.229 720.04 566.709 719.66V719.06ZM574.278 718.64C572.498 719.28 570.938 719.14 570.878 717.3V711.24H574.138V710.2H570.878V707.26H570.198L569.038 710.2H567.318V711.24H569.038V717.12C569.038 719.18 570.058 720.24 571.758 720.24C572.778 720.24 573.678 719.92 574.458 719.3L574.278 718.64ZM583.983 718.38C583.003 718.74 582.063 718.92 581.123 718.92C578.943 718.92 577.943 717.72 577.923 715.18H584.323C584.623 713.5 584.403 712.18 583.703 711.22C583.003 710.24 581.943 709.76 580.543 709.76C579.283 709.76 578.183 710.24 577.243 711.18C576.323 712.12 575.863 713.46 575.863 715.2C575.863 716.82 576.303 718.06 577.203 718.94C578.103 719.8 579.243 720.24 580.583 720.24C581.803 720.24 583.203 719.78 584.163 719.04L583.983 718.38ZM580.563 710.64C581.783 710.64 582.583 711.86 582.423 714.1L577.943 714.32C578.123 711.92 579.123 710.64 580.563 710.64ZM356.432 752.08L356.632 752.24L359.792 751.56V750.9L358.272 750.46V741.92L358.072 741.76L354.912 742.44V743.1L356.432 743.54V749.9C355.532 750.58 354.592 750.92 353.612 750.92C352.392 750.92 351.772 750.14 351.772 748.58V741.92L351.572 741.76L348.412 742.44V743.1L349.932 743.54V748.86C349.932 751.2 351.232 752.24 353.072 752.24C354.252 752.24 355.332 751.78 356.312 750.86L356.432 750.9V752.08ZM363.945 741.92L363.745 741.76L360.585 742.44V743.1L362.105 743.54V750.8L360.585 751.3V752H365.465V751.3L363.945 750.8V744.1C364.845 743.42 365.785 743.08 366.765 743.08C367.985 743.08 368.605 743.86 368.605 745.42V750.8L367.085 751.3V752H371.965V751.3L370.445 750.8V745.14C370.445 742.8 369.145 741.76 367.305 741.76C366.125 741.76 365.045 742.22 364.065 743.14L363.945 743.1V741.92ZM379.728 750.64C377.948 751.28 376.388 751.14 376.328 749.3V743.24H379.588V742.2H376.328V739.26H375.648L374.488 742.2H372.768V743.24H374.488V749.12C374.488 751.18 375.508 752.24 377.208 752.24C378.228 752.24 379.128 751.92 379.908 751.3L379.728 750.64ZM384.472 741.92L384.272 741.76L381.112 742.44V743.1L382.632 743.54V750.8L381.112 751.3V752H385.992V751.3L384.472 750.8V741.92ZM382.292 738.56C382.292 739.28 382.832 739.8 383.552 739.8C384.272 739.8 384.812 739.28 384.812 738.56C384.812 737.82 384.272 737.3 383.552 737.3C382.832 737.3 382.292 737.82 382.292 738.56ZM390.346 735.92L390.146 735.76L386.986 736.44V737.1L388.506 737.54V750.8L386.986 751.3V752H391.866V751.3L390.346 750.8V735.92ZM401.538 744.1C402.458 743.42 403.358 743.08 404.258 743.08C405.838 743.08 406.838 744.46 406.838 747.04C406.838 749.74 405.498 751.16 403.758 751.16C402.918 751.16 402.178 751.02 401.538 750.72V744.1ZM401.538 751.66C402.298 752.04 403.138 752.24 404.078 752.24C405.378 752.24 406.498 751.78 407.458 750.84C408.418 749.9 408.898 748.6 408.898 746.96C408.898 745.34 408.518 744.08 407.738 743.16C406.978 742.22 406.038 741.76 404.898 741.76C403.738 741.76 402.658 742.22 401.658 743.14L401.538 743.1V741.92L401.338 741.76L398.178 742.44V743.1L399.698 743.54V755.2L398.178 755.7V756.4H403.458V755.7L401.538 755.2V751.66ZM413.652 743.28V741.92L413.452 741.76L410.292 742.44V743.1L411.812 743.54V750.8L410.292 751.3V752H415.572V751.3L413.652 750.8V744.3C414.232 743.74 414.852 743.46 415.512 743.46C416.172 743.46 416.692 743.7 417.032 744.18L417.552 744.04V741.84C416.092 741.54 414.632 742.22 413.772 743.34L413.652 743.28ZM425.774 750.22C425.234 750.98 424.534 751.36 423.714 751.36C422.894 751.36 422.194 750.98 421.634 750.22C421.094 749.44 420.814 748.38 420.814 747C420.814 745.62 421.094 744.56 421.634 743.8C422.194 743.02 422.894 742.64 423.714 742.64C424.534 742.64 425.234 743.02 425.774 743.8C426.334 744.56 426.614 745.62 426.614 747C426.614 748.38 426.334 749.44 425.774 750.22ZM427.214 743.16C426.234 742.22 425.074 741.76 423.714 741.76C422.354 741.76 421.194 742.22 420.214 743.16C419.234 744.1 418.754 745.38 418.754 747C418.754 748.62 419.234 749.9 420.214 750.84C421.194 751.78 422.354 752.24 423.714 752.24C425.074 752.24 426.234 751.78 427.214 750.84C428.194 749.9 428.674 748.62 428.674 747C428.674 745.38 428.194 744.1 427.214 743.16ZM437.637 749.9C436.717 750.58 435.817 750.92 434.917 750.92C433.337 750.92 432.337 749.54 432.337 746.96C432.337 744.26 433.677 742.84 435.417 742.84C436.257 742.84 436.997 742.98 437.637 743.28V749.9ZM437.637 742.34C436.877 741.96 436.037 741.76 435.097 741.76C433.797 741.76 432.677 742.24 431.717 743.18C430.757 744.12 430.277 745.4 430.277 747.04C430.277 748.66 430.657 749.92 431.417 750.86C432.197 751.78 433.137 752.24 434.277 752.24C435.437 752.24 436.517 751.78 437.517 750.86L437.637 750.9V752.08L437.837 752.24L440.997 751.56V750.9L439.477 750.46V735.92L439.277 735.76L436.117 736.44V737.1L437.637 737.54V742.34ZM449.616 752.08L449.816 752.24L452.976 751.56V750.9L451.456 750.46V741.92L451.256 741.76L448.096 742.44V743.1L449.616 743.54V749.9C448.716 750.58 447.776 750.92 446.796 750.92C445.576 750.92 444.956 750.14 444.956 748.58V741.92L444.756 741.76L441.596 742.44V743.1L443.116 743.54V748.86C443.116 751.2 444.416 752.24 446.256 752.24C447.436 752.24 448.516 751.78 449.496 750.86L449.616 750.9V752.08ZM456.028 746.88C456.028 745.26 456.408 744.14 457.148 743.5C457.888 742.84 458.828 742.6 459.948 742.74L461.228 745.26H461.928V742.28C461.028 741.94 460.088 741.76 459.148 741.76C457.608 741.76 456.368 742.24 455.408 743.18C454.448 744.12 453.968 745.38 453.968 747C453.968 748.62 454.448 749.9 455.408 750.84C456.388 751.78 457.548 752.24 458.888 752.24C460.188 752.24 461.308 751.84 462.268 751.04L462.088 750.38C461.188 750.74 460.308 750.92 459.428 750.92C457.248 750.92 456.028 749.36 456.028 746.88ZM470.235 750.64C468.455 751.28 466.895 751.14 466.835 749.3V743.24H470.095V742.2H466.835V739.26H466.155L464.995 742.2H463.275V743.24H464.995V749.12C464.995 751.18 466.015 752.24 467.715 752.24C468.735 752.24 469.635 751.92 470.415 751.3L470.235 750.64ZM478.52 734.86L474.84 745.22L471 755.54L472.14 755.94L475.82 745.58L479.66 735.26L478.52 734.86ZM489.613 744.18C490.473 743.44 491.353 743.08 492.293 743.08C493.413 743.08 493.973 743.86 493.973 745.42V750.8L492.553 751.3V752H497.333V751.3L495.813 750.8V745.14C495.813 742.8 494.573 741.76 492.873 741.76C491.653 741.76 490.513 742.3 489.453 743.38L489.333 743.32C488.913 742.28 488.053 741.76 486.773 741.76C485.673 741.76 484.653 742.22 483.733 743.14L483.613 743.1V741.92L483.413 741.76L480.253 742.44V743.1L481.773 743.54V750.8L480.253 751.3V752H485.033V751.3L483.613 750.8V744.1C484.433 743.42 485.293 743.08 486.153 743.08C487.293 743.08 487.873 743.86 487.873 745.42V750.8L486.453 751.3V752H491.133V751.3L489.713 750.8V745.5C489.713 744.96 489.673 744.52 489.613 744.18ZM504.459 746.88V749.84C503.659 750.5 502.839 750.84 501.999 750.84C501.059 750.84 500.599 750.38 500.599 749.44C500.599 748.06 502.119 746.98 504.459 746.88ZM507.959 751.06C506.679 751.24 506.319 750.98 506.319 750.1V745.8C506.319 743.06 504.899 741.76 502.839 741.76C501.659 741.76 500.399 742.16 499.039 742.94L499.259 743.66C500.459 743.2 501.459 742.96 502.239 742.96C503.719 742.96 504.459 743.98 504.459 746.04C500.559 746.28 498.539 747.68 498.539 749.74C498.539 751.26 499.659 752.24 501.199 752.24C502.319 752.24 503.639 751.68 504.519 750.64L504.619 750.7C504.759 751.64 505.439 752.24 506.339 752.24C506.939 752.24 507.479 752.04 507.959 751.66V751.06ZM512.128 743.28V741.92L511.928 741.76L508.768 742.44V743.1L510.288 743.54V750.8L508.768 751.3V752H514.048V751.3L512.128 750.8V744.3C512.708 743.74 513.328 743.46 513.988 743.46C514.648 743.46 515.168 743.7 515.508 744.18L516.028 744.04V741.84C514.568 741.54 513.108 742.22 512.248 743.34L512.128 743.28ZM520.19 735.92L519.99 735.76L516.83 736.44V737.1L518.35 737.54V750.8L516.83 751.3V752H521.71V751.3L520.19 750.8V748.72L521.91 747.1L524.77 750.86L523.29 751.3V752H528.43V751.3L527.11 750.88L523.25 745.82L525.99 743.22L527.31 742.7V742H523.17V742.7L524.49 743.24L521.77 745.92L520.27 747.48L520.19 747.44V735.92ZM536.952 750.38C535.972 750.74 535.032 750.92 534.092 750.92C531.912 750.92 530.912 749.72 530.892 747.18H537.292C537.592 745.5 537.372 744.18 536.672 743.22C535.972 742.24 534.912 741.76 533.512 741.76C532.252 741.76 531.152 742.24 530.212 743.18C529.292 744.12 528.832 745.46 528.832 747.2C528.832 748.82 529.272 750.06 530.172 750.94C531.072 751.8 532.212 752.24 533.552 752.24C534.772 752.24 536.172 751.78 537.132 751.04L536.952 750.38ZM533.532 742.64C534.752 742.64 535.552 743.86 535.392 746.1L530.912 746.32C531.092 743.92 532.092 742.64 533.532 742.64ZM545.587 750.64C543.807 751.28 542.247 751.14 542.187 749.3V743.24H545.447V742.2H542.187V739.26H541.507L540.347 742.2H538.627V743.24H540.347V749.12C540.347 751.18 541.367 752.24 543.067 752.24C544.087 752.24 544.987 751.92 545.767 751.3L545.587 750.64ZM558.899 743.24V742.2H555.839V739.94C555.839 738.66 556.099 737.78 556.639 737.32C557.179 736.86 557.839 736.66 558.599 736.74L559.779 739.02H560.479V736.12C559.699 735.9 558.919 735.78 558.179 735.78C556.959 735.78 555.939 736.14 555.159 736.86C554.379 737.56 553.999 738.72 553.999 740.32V742.2H552.279V743.24H553.999V750.8L552.479 751.3V752H557.759V751.3L555.839 750.8V743.24H558.899ZM563.847 741.92L563.647 741.76L560.487 742.44V743.1L562.007 743.54V750.8L560.487 751.3V752H565.367V751.3L563.847 750.8V741.92ZM561.667 738.56C561.667 739.28 562.207 739.8 562.927 739.8C563.647 739.8 564.187 739.28 564.187 738.56C564.187 737.82 563.647 737.3 562.927 737.3C562.207 737.3 561.667 737.82 561.667 738.56ZM573.321 750.64C571.541 751.28 569.981 751.14 569.921 749.3V743.24H573.181V742.2H569.921V739.26H569.241L568.081 742.2H566.361V743.24H568.081V749.12C568.081 751.18 569.101 752.24 570.801 752.24C571.821 752.24 572.721 751.92 573.501 751.3L573.321 750.64Z" fill="#121C25"/>
<path d="M371.83 295.38C374.79 295.38 376.99 293.12 376.99 290.2C376.99 287.28 374.79 285 371.83 285H365.25V299H368.65V295.38H371.83ZM368.65 292.46V287.92H371.35C372.61 287.92 373.59 288.84 373.59 290.2C373.59 291.56 372.61 292.46 371.35 292.46H368.65ZM391.043 299H395.623L391.823 294.88C393.643 294.1 394.863 292.34 394.863 290.16C394.863 287.24 392.663 285 389.703 285H382.883V299H386.283V295.3H387.683L391.043 299ZM386.283 292.38V287.92H389.223C390.483 287.92 391.463 288.8 391.463 290.16C391.463 291.52 390.483 292.38 389.223 292.38H386.283ZM408.196 284.72C403.616 284.72 400.756 287.98 400.756 292C400.756 296.02 403.616 299.28 408.196 299.28C412.776 299.28 415.656 296.02 415.656 292C415.656 287.98 412.776 284.72 408.196 284.72ZM408.196 296.36C405.516 296.36 404.156 294.22 404.156 292C404.156 289.76 405.516 287.64 408.196 287.64C410.876 287.64 412.256 289.76 412.256 292C412.256 294.22 410.876 296.36 408.196 296.36ZM421.859 285V299H426.279C431.879 299 434.839 295.98 434.839 292C434.839 288.02 431.879 285 426.279 285H421.859ZM425.259 296.14V287.86H425.959C429.459 287.86 431.439 289.26 431.439 292C431.439 294.74 429.459 296.14 425.959 296.14H425.259ZM447.195 299.28C450.815 299.28 453.435 297 453.435 293.3V285H450.035V293.34C450.035 295.38 448.855 296.32 447.195 296.32C445.535 296.32 444.355 295.38 444.355 293.34V285H440.955V293.3C440.955 297 443.575 299.28 447.195 299.28ZM474.072 289.98C473.412 287.18 470.812 284.72 467.032 284.72C462.392 284.72 459.552 288.04 459.552 292C459.552 295.96 462.392 299.28 467.032 299.28C470.812 299.28 473.412 296.82 474.072 294.02H470.692C470.152 295.32 468.932 296.32 467.012 296.32C464.332 296.32 462.952 294.38 462.952 292C462.952 289.62 464.332 287.68 467.012 287.68C468.932 287.68 470.152 288.68 470.692 289.98H474.072ZM479.33 287.96H483.27V299H486.67V287.96H490.61V285H479.33V287.96ZM355.272 309V323H359.692C365.292 323 368.252 319.98 368.252 316C368.252 312.02 365.292 309 359.692 309H355.272ZM358.672 320.14V311.86H359.372C362.872 311.86 364.852 313.26 364.852 316C364.852 318.74 362.872 320.14 359.372 320.14H358.672ZM377.947 323V309H374.547V323H377.947ZM394.614 318.7C394.614 316.36 393.294 315.2 391.074 314.58L389.274 314.08C388.394 313.84 387.814 313.52 387.814 312.74C387.814 312 388.354 311.48 389.334 311.48C390.354 311.48 390.874 312.26 390.914 313.14H394.014C393.934 310.7 392.154 308.72 389.354 308.72C386.614 308.72 384.474 310.28 384.474 313.08C384.474 315.28 385.954 316.42 388.054 316.98L389.914 317.48C390.814 317.72 391.274 318.22 391.274 318.98C391.274 319.82 390.534 320.52 389.494 320.52C388.174 320.52 387.614 319.72 387.494 318.7H384.254C384.494 321.44 386.294 323.28 389.414 323.28C391.954 323.28 394.614 321.6 394.614 318.7ZM414.629 313.98C413.969 311.18 411.369 308.72 407.589 308.72C402.949 308.72 400.109 312.04 400.109 316C400.109 319.96 402.949 323.28 407.589 323.28C411.369 323.28 413.969 320.82 414.629 318.02H411.249C410.709 319.32 409.489 320.32 407.569 320.32C404.889 320.32 403.509 318.38 403.509 316C403.509 313.62 404.889 311.68 407.569 311.68C409.489 311.68 410.709 312.68 411.249 313.98H414.629ZM427.662 308.72C423.082 308.72 420.222 311.98 420.222 316C420.222 320.02 423.082 323.28 427.662 323.28C432.242 323.28 435.122 320.02 435.122 316C435.122 311.98 432.242 308.72 427.662 308.72ZM427.662 320.36C424.982 320.36 423.622 318.22 423.622 316C423.622 313.76 424.982 311.64 427.662 311.64C430.342 311.64 431.722 313.76 431.722 316C431.722 318.22 430.342 320.36 427.662 320.36ZM453.398 309H449.738L446.458 317.88L443.178 309H439.518L445.238 323H447.678L453.398 309ZM462.3 320.04V317.38H468.5V314.42H462.3V311.96H468.68V309H458.9V323H468.76V320.04H462.3ZM483.228 323H487.808L484.008 318.88C485.828 318.1 487.048 316.34 487.048 314.16C487.048 311.24 484.848 309 481.888 309H475.068V323H478.468V319.3H479.868L483.228 323ZM478.468 316.38V311.92H481.408C482.668 311.92 483.648 312.8 483.648 314.16C483.648 315.52 482.668 316.38 481.408 316.38H478.468ZM505.088 309H501.448L498.548 314.8L495.648 309H492.008L496.848 317.96V323H500.248V317.96L505.088 309Z" fill="black"/>
<path d="M958.64 294.32H963.02C962.5 295.54 961.24 296.46 959.4 296.46C956.88 296.46 955.3 294.8 955.3 292C955.3 289.46 956.86 287.64 959.44 287.64C961.34 287.64 962.46 288.64 963.06 289.84H966.42C965.52 286.7 962.96 284.72 959.42 284.72C954.8 284.72 951.9 287.96 951.9 292C951.9 295.96 954.76 299.28 959.42 299.28C963.82 299.28 966.74 296.14 966.74 291.82V291.54H958.64V294.32ZM981.105 299H985.685L981.885 294.88C983.705 294.1 984.925 292.34 984.925 290.16C984.925 287.24 982.725 285 979.765 285H972.945V299H976.345V295.3H977.745L981.105 299ZM976.345 292.38V287.92H979.285C980.545 287.92 981.525 288.8 981.525 290.16C981.525 291.52 980.545 292.38 979.285 292.38H976.345ZM998.258 284.72C993.678 284.72 990.818 287.98 990.818 292C990.818 296.02 993.678 299.28 998.258 299.28C1002.84 299.28 1005.72 296.02 1005.72 292C1005.72 287.98 1002.84 284.72 998.258 284.72ZM998.258 296.36C995.578 296.36 994.218 294.22 994.218 292C994.218 289.76 995.578 287.64 998.258 287.64C1000.94 287.64 1002.32 289.76 1002.32 292C1002.32 294.22 1000.94 296.36 998.258 296.36ZM1021.87 285H1019.35L1016.27 293.4L1013.93 285H1010.45L1014.93 299H1017.39L1020.61 289.82L1023.83 299H1026.29L1030.77 285H1027.29L1024.95 293.4L1021.87 285ZM1035.65 287.96H1039.59V299H1042.99V287.96H1046.93V285H1035.65V287.96ZM1062.21 290.42H1056.39V285H1052.99V299H1056.39V293.54H1062.21V299H1065.61V285H1062.21V290.42ZM933.37 309H931.09V323H934.37V316.22L938.91 323.2L943.45 316.22V323H946.73V309H944.45L938.91 318.04L933.37 309ZM963.487 323H967.167L961.147 309H958.587L952.567 323H956.247L956.947 321.02H962.767L963.487 323ZM959.867 312.96L961.767 318.24H957.947L959.867 312.96ZM981.176 323H985.756L981.956 318.88C983.776 318.1 984.996 316.34 984.996 314.16C984.996 311.24 982.796 309 979.836 309H973.016V323H976.416V319.3H977.816L981.176 323ZM976.416 316.38V311.92H979.356C980.616 311.92 981.596 312.8 981.596 314.16C981.596 315.52 980.616 316.38 979.356 316.38H976.416ZM994.986 309H991.586V323H994.986V316.04L999.906 323H1003.89L998.726 315.8L1003.63 309H999.766L994.986 315.58V309ZM1013.28 320.04V317.38H1019.48V314.42H1013.28V311.96H1019.66V309H1009.88V323H1019.74V320.04H1013.28ZM1025.31 311.96H1029.25V323H1032.65V311.96H1036.59V309H1025.31V311.96ZM1046.15 323V309H1042.75V323H1046.15ZM1063.17 317.34L1056.05 309H1053.05V323H1056.45V314.68L1063.57 323H1066.57V309H1063.17V317.34ZM1079.52 318.32H1083.9C1083.38 319.54 1082.12 320.46 1080.28 320.46C1077.76 320.46 1076.18 318.8 1076.18 316C1076.18 313.46 1077.74 311.64 1080.32 311.64C1082.22 311.64 1083.34 312.64 1083.94 313.84H1087.3C1086.4 310.7 1083.84 308.72 1080.3 308.72C1075.68 308.72 1072.78 311.96 1072.78 316C1072.78 319.96 1075.64 323.28 1080.3 323.28C1084.7 323.28 1087.62 320.14 1087.62 315.82V315.54H1079.52V318.32Z" fill="black"/>
<path d="M629.018 602.24C627.498 602.24 626.258 601.7 625.278 600.62C624.318 599.52 623.838 597.96 623.838 595.9C623.838 593.84 624.318 592.28 625.278 591.2C626.258 590.1 627.498 589.56 629.018 589.56C629.718 589.56 630.378 589.64 630.998 589.82L632.398 592.48H633.098V589.68C631.718 588.94 630.218 588.56 628.598 588.56C626.738 588.56 625.078 589.16 623.738 590.3C622.398 591.44 621.578 593.42 621.578 595.9C621.578 598.38 622.398 600.36 623.738 601.5C625.078 602.64 626.738 603.24 628.598 603.24C630.218 603.24 631.718 602.86 633.098 602.12V599.12H632.398L630.938 602C630.278 602.16 629.638 602.24 629.018 602.24ZM637.668 594.28V592.92L637.468 592.76L634.308 593.44V594.1L635.828 594.54V601.8L634.308 602.3V603H639.588V602.3L637.668 601.8V595.3C638.248 594.74 638.868 594.46 639.528 594.46C640.188 594.46 640.708 594.7 641.048 595.18L641.568 595.04V592.84C640.108 592.54 638.648 593.22 637.788 594.34L637.668 594.28ZM650.889 601.38C649.909 601.74 648.969 601.92 648.029 601.92C645.849 601.92 644.849 600.72 644.829 598.18H651.229C651.529 596.5 651.309 595.18 650.609 594.22C649.909 593.24 648.849 592.76 647.449 592.76C646.189 592.76 645.089 593.24 644.149 594.18C643.229 595.12 642.769 596.46 642.769 598.2C642.769 599.82 643.209 601.06 644.109 601.94C645.009 602.8 646.149 603.24 647.489 603.24C648.709 603.24 650.109 602.78 651.069 602.04L650.889 601.38ZM647.469 593.64C648.689 593.64 649.489 594.86 649.329 597.1L644.849 597.32C645.029 594.92 646.029 593.64 647.469 593.64ZM658.885 597.88V600.84C658.085 601.5 657.265 601.84 656.425 601.84C655.485 601.84 655.025 601.38 655.025 600.44C655.025 599.06 656.545 597.98 658.885 597.88ZM662.385 602.06C661.105 602.24 660.745 601.98 660.745 601.1V596.8C660.745 594.06 659.325 592.76 657.265 592.76C656.085 592.76 654.825 593.16 653.465 593.94L653.685 594.66C654.885 594.2 655.885 593.96 656.665 593.96C658.145 593.96 658.885 594.98 658.885 597.04C654.985 597.28 652.965 598.68 652.965 600.74C652.965 602.26 654.085 603.24 655.625 603.24C656.745 603.24 658.065 602.68 658.945 601.64L659.045 601.7C659.185 602.64 659.865 603.24 660.765 603.24C661.365 603.24 661.905 603.04 662.385 602.66V602.06ZM669.954 601.64C668.174 602.28 666.614 602.14 666.554 600.3V594.24H669.814V593.2H666.554V590.26H665.874L664.714 593.2H662.994V594.24H664.714V600.12C664.714 602.18 665.734 603.24 667.434 603.24C668.454 603.24 669.354 602.92 670.134 602.3L669.954 601.64ZM674.699 592.92L674.499 592.76L671.339 593.44V594.1L672.859 594.54V601.8L671.339 602.3V603H676.219V602.3L674.699 601.8V592.92ZM672.519 589.56C672.519 590.28 673.059 590.8 673.779 590.8C674.499 590.8 675.039 590.28 675.039 589.56C675.039 588.82 674.499 588.3 673.779 588.3C673.059 588.3 672.519 588.82 672.519 589.56ZM687.813 593.7V593H683.873V593.7L685.453 594.24L683.553 599.12L682.733 601.18H682.653L681.853 599.12L679.873 594.2L681.433 593.7V593H676.613V593.7L677.853 594.2L681.493 603.12H682.953L686.633 594.24L687.813 593.7ZM696.534 601.38C695.554 601.74 694.614 601.92 693.674 601.92C691.494 601.92 690.494 600.72 690.474 598.18H696.874C697.174 596.5 696.954 595.18 696.254 594.22C695.554 593.24 694.494 592.76 693.094 592.76C691.834 592.76 690.734 593.24 689.794 594.18C688.874 595.12 688.414 596.46 688.414 598.2C688.414 599.82 688.854 601.06 689.754 601.94C690.654 602.8 691.794 603.24 693.134 603.24C694.354 603.24 695.754 602.78 696.714 602.04L696.534 601.38ZM693.114 593.64C694.334 593.64 695.134 594.86 694.974 597.1L690.494 597.32C690.674 594.92 691.674 593.64 693.114 593.64ZM706.177 597.88C706.177 596.26 706.557 595.14 707.297 594.5C708.037 593.84 708.977 593.6 710.097 593.74L711.377 596.26H712.077V593.28C711.177 592.94 710.237 592.76 709.297 592.76C707.757 592.76 706.517 593.24 705.557 594.18C704.597 595.12 704.117 596.38 704.117 598C704.117 599.62 704.597 600.9 705.557 601.84C706.537 602.78 707.697 603.24 709.037 603.24C710.337 603.24 711.457 602.84 712.417 602.04L712.237 601.38C711.337 601.74 710.457 601.92 709.577 601.92C707.397 601.92 706.177 600.36 706.177 597.88ZM716.784 586.92L716.584 586.76L713.424 587.44V588.1L714.944 588.54V601.8L713.424 602.3V603H718.304V602.3L716.784 601.8V595.1C717.684 594.42 718.624 594.08 719.604 594.08C720.824 594.08 721.444 594.86 721.444 596.42V601.8L719.924 602.3V603H724.804V602.3L723.284 601.8V596.14C723.284 593.8 721.984 592.76 720.144 592.76C718.964 592.76 717.884 593.22 716.904 594.14L716.784 594.1V586.92ZM731.931 597.88V600.84C731.131 601.5 730.311 601.84 729.471 601.84C728.531 601.84 728.071 601.38 728.071 600.44C728.071 599.06 729.591 597.98 731.931 597.88ZM735.431 602.06C734.151 602.24 733.791 601.98 733.791 601.1V596.8C733.791 594.06 732.371 592.76 730.311 592.76C729.131 592.76 727.871 593.16 726.511 593.94L726.731 594.66C727.931 594.2 728.931 593.96 729.711 593.96C731.191 593.96 731.931 594.98 731.931 597.04C728.031 597.28 726.011 598.68 726.011 600.74C726.011 602.26 727.131 603.24 728.671 603.24C729.791 603.24 731.111 602.68 731.991 601.64L732.091 601.7C732.231 602.64 732.911 603.24 733.811 603.24C734.411 603.24 734.951 603.04 735.431 602.66V602.06ZM743.461 601.22C742.921 601.98 742.221 602.36 741.401 602.36C740.581 602.36 739.881 601.98 739.321 601.22C738.781 600.44 738.501 599.38 738.501 598C738.501 596.62 738.781 595.56 739.321 594.8C739.881 594.02 740.581 593.64 741.401 593.64C742.221 593.64 742.921 594.02 743.461 594.8C744.021 595.56 744.301 596.62 744.301 598C744.301 599.38 744.021 600.44 743.461 601.22ZM744.901 594.16C743.921 593.22 742.761 592.76 741.401 592.76C740.041 592.76 738.881 593.22 737.901 594.16C736.921 595.1 736.441 596.38 736.441 598C736.441 599.62 736.921 600.9 737.901 601.84C738.881 602.78 740.041 603.24 741.401 603.24C742.761 603.24 743.921 602.78 744.901 601.84C745.881 600.9 746.361 599.62 746.361 598C746.361 596.38 745.881 595.1 744.901 594.16ZM748.105 602.62C749.045 603.04 750.105 603.24 751.265 603.24C752.405 603.24 753.345 602.98 754.105 602.48C754.865 601.96 755.245 601.2 755.245 600.2C755.245 598.86 754.385 598 753.285 597.54C751.725 596.88 749.725 596.48 749.725 595.1C749.725 594.54 750.045 594.12 750.685 593.86C751.325 593.58 752.105 593.54 753.025 593.74L754.005 595.86H754.705V593.38C753.805 592.96 752.785 592.76 751.665 592.76C750.685 592.76 749.845 593 749.145 593.48C748.445 593.96 748.105 594.68 748.105 595.64C748.105 596.98 748.945 597.86 749.985 598.32C751.505 598.94 753.425 599.38 753.425 600.7C753.425 601.4 753.065 601.88 752.345 602.18C751.625 602.46 750.765 602.5 749.785 602.3L748.805 600.14H748.105V602.62ZM771.656 595.18C772.516 594.44 773.396 594.08 774.336 594.08C775.456 594.08 776.016 594.86 776.016 596.42V601.8L774.596 602.3V603H779.376V602.3L777.856 601.8V596.14C777.856 593.8 776.616 592.76 774.916 592.76C773.696 592.76 772.556 593.3 771.496 594.38L771.376 594.32C770.956 593.28 770.096 592.76 768.816 592.76C767.716 592.76 766.696 593.22 765.776 594.14L765.656 594.1V592.92L765.456 592.76L762.296 593.44V594.1L763.816 594.54V601.8L762.296 602.3V603H767.076V602.3L765.656 601.8V595.1C766.476 594.42 767.336 594.08 768.196 594.08C769.336 594.08 769.916 594.86 769.916 596.42V601.8L768.496 602.3V603H773.176V602.3L771.756 601.8V596.5C771.756 595.96 771.716 595.52 771.656 595.18ZM788.702 601.38C787.722 601.74 786.782 601.92 785.842 601.92C783.662 601.92 782.662 600.72 782.642 598.18H789.042C789.342 596.5 789.122 595.18 788.422 594.22C787.722 593.24 786.662 592.76 785.262 592.76C784.002 592.76 782.902 593.24 781.962 594.18C781.042 595.12 780.582 596.46 780.582 598.2C780.582 599.82 781.022 601.06 781.922 601.94C782.822 602.8 783.962 603.24 785.302 603.24C786.522 603.24 787.922 602.78 788.882 602.04L788.702 601.38ZM785.282 593.64C786.502 593.64 787.302 594.86 787.142 597.1L782.662 597.32C782.842 594.92 783.842 593.64 785.282 593.64ZM798.897 601.38C797.917 601.74 796.977 601.92 796.037 601.92C793.857 601.92 792.857 600.72 792.837 598.18H799.237C799.537 596.5 799.317 595.18 798.617 594.22C797.917 593.24 796.857 592.76 795.457 592.76C794.197 592.76 793.097 593.24 792.157 594.18C791.237 595.12 790.777 596.46 790.777 598.2C790.777 599.82 791.217 601.06 792.117 601.94C793.017 602.8 794.157 603.24 795.497 603.24C796.717 603.24 798.117 602.78 799.077 602.04L798.897 601.38ZM795.477 593.64C796.697 593.64 797.497 594.86 797.337 597.1L792.857 597.32C793.037 594.92 794.037 593.64 795.477 593.64ZM807.532 601.64C805.752 602.28 804.192 602.14 804.132 600.3V594.24H807.392V593.2H804.132V590.26H803.452L802.292 593.2H800.572V594.24H802.292V600.12C802.292 602.18 803.312 603.24 805.012 603.24C806.032 603.24 806.932 602.92 807.712 602.3L807.532 601.64ZM809.257 602.62C810.197 603.04 811.257 603.24 812.417 603.24C813.557 603.24 814.497 602.98 815.257 602.48C816.017 601.96 816.397 601.2 816.397 600.2C816.397 598.86 815.537 598 814.437 597.54C812.877 596.88 810.877 596.48 810.877 595.1C810.877 594.54 811.197 594.12 811.837 593.86C812.477 593.58 813.257 593.54 814.177 593.74L815.157 595.86H815.857V593.38C814.957 592.96 813.937 592.76 812.817 592.76C811.837 592.76 810.997 593 810.297 593.48C809.597 593.96 809.257 594.68 809.257 595.64C809.257 596.98 810.097 597.86 811.137 598.32C812.657 598.94 814.577 599.38 814.577 600.7C814.577 601.4 814.217 601.88 813.497 602.18C812.777 602.46 811.917 602.5 810.937 602.3L809.957 600.14H809.257V602.62ZM617.067 627.1C617.987 626.42 618.887 626.08 619.787 626.08C621.367 626.08 622.367 627.46 622.367 630.04C622.367 632.74 621.027 634.16 619.287 634.16C618.447 634.16 617.707 634.02 617.067 633.72V627.1ZM617.067 634.66C617.827 635.04 618.667 635.24 619.607 635.24C620.907 635.24 622.027 634.78 622.987 633.84C623.947 632.9 624.427 631.6 624.427 629.96C624.427 628.34 624.047 627.08 623.267 626.16C622.507 625.22 621.567 624.76 620.427 624.76C619.267 624.76 618.187 625.22 617.187 626.14L617.067 626.1V624.92L616.867 624.76L613.707 625.44V626.1L615.227 626.54V638.2L613.707 638.7V639.4H618.987V638.7L617.067 638.2V634.66ZM629.181 626.28V624.92L628.981 624.76L625.821 625.44V626.1L627.341 626.54V633.8L625.821 634.3V635H631.101V634.3L629.181 633.8V627.3C629.761 626.74 630.381 626.46 631.041 626.46C631.701 626.46 632.221 626.7 632.561 627.18L633.081 627.04V624.84C631.621 624.54 630.161 625.22 629.301 626.34L629.181 626.28ZM642.403 633.38C641.423 633.74 640.483 633.92 639.543 633.92C637.363 633.92 636.363 632.72 636.343 630.18H642.743C643.043 628.5 642.823 627.18 642.123 626.22C641.423 625.24 640.363 624.76 638.963 624.76C637.703 624.76 636.603 625.24 635.663 626.18C634.743 627.12 634.283 628.46 634.283 630.2C634.283 631.82 634.723 633.06 635.623 633.94C636.523 634.8 637.663 635.24 639.003 635.24C640.223 635.24 641.623 634.78 642.583 634.04L642.403 633.38ZM638.983 625.64C640.203 625.64 641.003 626.86 640.843 629.1L636.363 629.32C636.543 626.92 637.543 625.64 638.983 625.64ZM646.538 629.88C646.538 628.26 646.918 627.14 647.658 626.5C648.398 625.84 649.338 625.6 650.458 625.74L651.738 628.26H652.438V625.28C651.538 624.94 650.598 624.76 649.658 624.76C648.118 624.76 646.878 625.24 645.918 626.18C644.958 627.12 644.478 628.38 644.478 630C644.478 631.62 644.958 632.9 645.918 633.84C646.898 634.78 648.058 635.24 649.398 635.24C650.698 635.24 651.818 634.84 652.778 634.04L652.598 633.38C651.698 633.74 650.818 633.92 649.938 633.92C647.758 633.92 646.538 632.36 646.538 629.88ZM657.345 624.92L657.145 624.76L653.985 625.44V626.1L655.505 626.54V633.8L653.985 634.3V635H658.865V634.3L657.345 633.8V624.92ZM655.165 621.56C655.165 622.28 655.705 622.8 656.425 622.8C657.145 622.8 657.685 622.28 657.685 621.56C657.685 620.82 657.145 620.3 656.425 620.3C655.705 620.3 655.165 620.82 655.165 621.56ZM660.399 634.62C661.339 635.04 662.399 635.24 663.559 635.24C664.699 635.24 665.639 634.98 666.399 634.48C667.159 633.96 667.539 633.2 667.539 632.2C667.539 630.86 666.679 630 665.579 629.54C664.019 628.88 662.019 628.48 662.019 627.1C662.019 626.54 662.339 626.12 662.979 625.86C663.619 625.58 664.399 625.54 665.319 625.74L666.299 627.86H666.999V625.38C666.099 624.96 665.079 624.76 663.959 624.76C662.979 624.76 662.139 625 661.439 625.48C660.739 625.96 660.399 626.68 660.399 627.64C660.399 628.98 661.239 629.86 662.279 630.32C663.799 630.94 665.719 631.38 665.719 632.7C665.719 633.4 665.359 633.88 664.639 634.18C663.919 634.46 663.059 634.5 662.079 634.3L661.099 632.14H660.399V634.62ZM672.443 624.92L672.243 624.76L669.083 625.44V626.1L670.603 626.54V633.8L669.083 634.3V635H673.963V634.3L672.443 633.8V624.92ZM670.263 621.56C670.263 622.28 670.803 622.8 671.523 622.8C672.243 622.8 672.783 622.28 672.783 621.56C672.783 620.82 672.243 620.3 671.523 620.3C670.803 620.3 670.263 620.82 670.263 621.56ZM682.377 633.22C681.837 633.98 681.137 634.36 680.317 634.36C679.497 634.36 678.797 633.98 678.237 633.22C677.697 632.44 677.417 631.38 677.417 630C677.417 628.62 677.697 627.56 678.237 626.8C678.797 626.02 679.497 625.64 680.317 625.64C681.137 625.64 681.837 626.02 682.377 626.8C682.937 627.56 683.217 628.62 683.217 630C683.217 631.38 682.937 632.44 682.377 633.22ZM683.817 626.16C682.837 625.22 681.677 624.76 680.317 624.76C678.957 624.76 677.797 625.22 676.817 626.16C675.837 627.1 675.357 628.38 675.357 630C675.357 631.62 675.837 632.9 676.817 633.84C677.797 634.78 678.957 635.24 680.317 635.24C681.677 635.24 682.837 634.78 683.817 633.84C684.797 632.9 685.277 631.62 685.277 630C685.277 628.38 684.797 627.1 683.817 626.16ZM690.041 624.92L689.841 624.76L686.681 625.44V626.1L688.201 626.54V633.8L686.681 634.3V635H691.561V634.3L690.041 633.8V627.1C690.941 626.42 691.881 626.08 692.861 626.08C694.081 626.08 694.701 626.86 694.701 628.42V633.8L693.181 634.3V635H698.061V634.3L696.541 633.8V628.14C696.541 625.8 695.241 624.76 693.401 624.76C692.221 624.76 691.141 625.22 690.161 626.14L690.041 626.1V624.92ZM712.131 632.9C711.211 633.58 710.311 633.92 709.411 633.92C707.831 633.92 706.831 632.54 706.831 629.96C706.831 627.26 708.171 625.84 709.911 625.84C710.751 625.84 711.491 625.98 712.131 626.28V632.9ZM712.131 625.34C711.371 624.96 710.531 624.76 709.591 624.76C708.291 624.76 707.171 625.24 706.211 626.18C705.251 627.12 704.771 628.4 704.771 630.04C704.771 631.66 705.151 632.92 705.911 633.86C706.691 634.78 707.631 635.24 708.771 635.24C709.931 635.24 711.011 634.78 712.011 633.86L712.131 633.9V635.08L712.331 635.24L715.491 634.56V633.9L713.971 633.46V618.92L713.771 618.76L710.611 619.44V620.1L712.131 620.54V625.34ZM724.61 633.38C723.63 633.74 722.69 633.92 721.75 633.92C719.57 633.92 718.57 632.72 718.55 630.18H724.95C725.25 628.5 725.03 627.18 724.33 626.22C723.63 625.24 722.57 624.76 721.17 624.76C719.91 624.76 718.81 625.24 717.87 626.18C716.95 627.12 716.49 628.46 716.49 630.2C716.49 631.82 716.93 633.06 717.83 633.94C718.73 634.8 719.87 635.24 721.21 635.24C722.43 635.24 723.83 634.78 724.79 634.04L724.61 633.38ZM721.19 625.64C722.41 625.64 723.21 626.86 723.05 629.1L718.57 629.32C718.75 626.92 719.75 625.64 721.19 625.64ZM736.885 625.7V625H732.945V625.7L734.525 626.24L732.625 631.12L731.805 633.18H731.725L730.925 631.12L728.945 626.2L730.505 625.7V625H725.685V625.7L726.925 626.2L730.565 635.12H732.025L735.705 626.24L736.885 625.7ZM745.606 633.38C744.626 633.74 743.686 633.92 742.746 633.92C740.566 633.92 739.566 632.72 739.546 630.18H745.946C746.246 628.5 746.026 627.18 745.326 626.22C744.626 625.24 743.566 624.76 742.166 624.76C740.906 624.76 739.806 625.24 738.866 626.18C737.946 627.12 737.486 628.46 737.486 630.2C737.486 631.82 737.926 633.06 738.826 633.94C739.726 634.8 740.866 635.24 742.206 635.24C743.426 635.24 744.826 634.78 745.786 634.04L745.606 633.38ZM742.186 625.64C743.406 625.64 744.206 626.86 744.046 629.1L739.566 629.32C739.746 626.92 740.746 625.64 742.186 625.64ZM750.641 618.92L750.441 618.76L747.281 619.44V620.1L748.801 620.54V633.8L747.281 634.3V635H752.161V634.3L750.641 633.8V618.92ZM760.385 633.22C759.845 633.98 759.145 634.36 758.325 634.36C757.505 634.36 756.805 633.98 756.245 633.22C755.705 632.44 755.425 631.38 755.425 630C755.425 628.62 755.705 627.56 756.245 626.8C756.805 626.02 757.505 625.64 758.325 625.64C759.145 625.64 759.845 626.02 760.385 626.8C760.945 627.56 761.225 628.62 761.225 630C761.225 631.38 760.945 632.44 760.385 633.22ZM761.825 626.16C760.845 625.22 759.685 624.76 758.325 624.76C756.965 624.76 755.805 625.22 754.825 626.16C753.845 627.1 753.365 628.38 753.365 630C753.365 631.62 753.845 632.9 754.825 633.84C755.805 634.78 756.965 635.24 758.325 635.24C759.685 635.24 760.845 634.78 761.825 633.84C762.805 632.9 763.285 631.62 763.285 630C763.285 628.38 762.805 627.1 761.825 626.16ZM767.848 627.1C768.768 626.42 769.668 626.08 770.568 626.08C772.148 626.08 773.148 627.46 773.148 630.04C773.148 632.74 771.808 634.16 770.068 634.16C769.228 634.16 768.488 634.02 767.848 633.72V627.1ZM767.848 634.66C768.608 635.04 769.448 635.24 770.388 635.24C771.688 635.24 772.808 634.78 773.768 633.84C774.728 632.9 775.208 631.6 775.208 629.96C775.208 628.34 774.828 627.08 774.048 626.16C773.288 625.22 772.348 624.76 771.208 624.76C770.048 624.76 768.968 625.22 767.968 626.14L767.848 626.1V624.92L767.648 624.76L764.488 625.44V626.1L766.008 626.54V638.2L764.488 638.7V639.4H769.768V638.7L767.848 638.2V634.66ZM785.962 627.18C786.822 626.44 787.702 626.08 788.642 626.08C789.762 626.08 790.322 626.86 790.322 628.42V633.8L788.902 634.3V635H793.682V634.3L792.162 633.8V628.14C792.162 625.8 790.922 624.76 789.222 624.76C788.002 624.76 786.862 625.3 785.802 626.38L785.682 626.32C785.262 625.28 784.402 624.76 783.122 624.76C782.022 624.76 781.002 625.22 780.082 626.14L779.962 626.1V624.92L779.762 624.76L776.602 625.44V626.1L778.122 626.54V633.8L776.602 634.3V635H781.382V634.3L779.962 633.8V627.1C780.782 626.42 781.642 626.08 782.502 626.08C783.642 626.08 784.222 626.86 784.222 628.42V633.8L782.802 634.3V635H787.482V634.3L786.062 633.8V628.5C786.062 627.96 786.022 627.52 785.962 627.18ZM803.008 633.38C802.028 633.74 801.088 633.92 800.148 633.92C797.968 633.92 796.968 632.72 796.948 630.18H803.348C803.648 628.5 803.428 627.18 802.728 626.22C802.028 625.24 800.968 624.76 799.568 624.76C798.308 624.76 797.208 625.24 796.268 626.18C795.348 627.12 794.888 628.46 794.888 630.2C794.888 631.82 795.328 633.06 796.228 633.94C797.128 634.8 798.268 635.24 799.608 635.24C800.828 635.24 802.228 634.78 803.188 634.04L803.008 633.38ZM799.588 625.64C800.808 625.64 801.608 626.86 801.448 629.1L796.968 629.32C797.148 626.92 798.148 625.64 799.588 625.64ZM808.244 624.92L808.044 624.76L804.884 625.44V626.1L806.404 626.54V633.8L804.884 634.3V635H809.764V634.3L808.244 633.8V627.1C809.144 626.42 810.084 626.08 811.064 626.08C812.284 626.08 812.904 626.86 812.904 628.42V633.8L811.384 634.3V635H816.264V634.3L814.744 633.8V628.14C814.744 625.8 813.444 624.76 811.604 624.76C810.424 624.76 809.344 625.22 808.364 626.14L808.244 626.1V624.92ZM824.027 633.64C822.247 634.28 820.687 634.14 820.627 632.3V626.24H823.887V625.2H820.627V622.26H819.947L818.787 625.2H817.067V626.24H818.787V632.12C818.787 634.18 819.807 635.24 821.507 635.24C822.527 635.24 823.427 634.92 824.207 634.3L824.027 633.64Z" fill="#121C25"/>
<ellipse cx="460.059" cy="677.427" rx="3.75" ry="3.82299" fill="#C4C6C8"/>
<path d="M460.059 676.471V588.25" stroke="#C4C6C8" stroke-width="2" stroke-linecap="round" stroke-linejoin="round" stroke-dasharray="1 8"/>
<path d="M882.35 720C884.61 720 886.41 719.34 887.77 718.02C889.13 716.7 889.81 714.92 889.81 712.7C889.81 708.22 886.99 705.8 882.35 705.8H875.89V706.5L877.81 707V718.8L875.89 719.3V720H882.35ZM879.85 719V706.8H881.97C883.63 706.8 884.99 707.3 886.01 708.28C887.03 709.26 887.55 710.72 887.55 712.7C887.55 714.68 887.03 716.24 885.97 717.34C884.93 718.44 883.59 719 881.97 719H879.85ZM897.338 714.88V717.84C896.538 718.5 895.718 718.84 894.878 718.84C893.938 718.84 893.478 718.38 893.478 717.44C893.478 716.06 894.998 714.98 897.338 714.88ZM900.838 719.06C899.558 719.24 899.198 718.98 899.198 718.1V713.8C899.198 711.06 897.778 709.76 895.718 709.76C894.538 709.76 893.278 710.16 891.918 710.94L892.138 711.66C893.338 711.2 894.338 710.96 895.118 710.96C896.598 710.96 897.338 711.98 897.338 714.04C893.438 714.28 891.418 715.68 891.418 717.74C891.418 719.26 892.538 720.24 894.078 720.24C895.198 720.24 896.518 719.68 897.398 718.64L897.498 718.7C897.638 719.64 898.318 720.24 899.218 720.24C899.818 720.24 900.358 720.04 900.838 719.66V719.06ZM908.407 718.64C906.627 719.28 905.067 719.14 905.007 717.3V711.24H908.267V710.2H905.007V707.26H904.327L903.167 710.2H901.447V711.24H903.167V717.12C903.167 719.18 904.187 720.24 905.887 720.24C906.907 720.24 907.807 719.92 908.587 719.3L908.407 718.64ZM915.912 714.88V717.84C915.112 718.5 914.292 718.84 913.452 718.84C912.512 718.84 912.052 718.38 912.052 717.44C912.052 716.06 913.572 714.98 915.912 714.88ZM919.412 719.06C918.132 719.24 917.772 718.98 917.772 718.1V713.8C917.772 711.06 916.352 709.76 914.292 709.76C913.112 709.76 911.852 710.16 910.492 710.94L910.712 711.66C911.912 711.2 912.912 710.96 913.692 710.96C915.172 710.96 915.912 711.98 915.912 714.04C912.012 714.28 909.992 715.68 909.992 717.74C909.992 719.26 911.112 720.24 912.652 720.24C913.772 720.24 915.092 719.68 915.972 718.64L916.072 718.7C916.212 719.64 916.892 720.24 917.792 720.24C918.392 720.24 918.932 720.04 919.412 719.66V719.06ZM926.069 719.62C927.009 720.04 928.069 720.24 929.229 720.24C930.369 720.24 931.309 719.98 932.069 719.48C932.829 718.96 933.209 718.2 933.209 717.2C933.209 715.86 932.349 715 931.249 714.54C929.689 713.88 927.689 713.48 927.689 712.1C927.689 711.54 928.009 711.12 928.649 710.86C929.289 710.58 930.069 710.54 930.989 710.74L931.969 712.86H932.669V710.38C931.769 709.96 930.749 709.76 929.629 709.76C928.649 709.76 927.809 710 927.109 710.48C926.409 710.96 926.069 711.68 926.069 712.64C926.069 713.98 926.909 714.86 927.949 715.32C929.469 715.94 931.389 716.38 931.389 717.7C931.389 718.4 931.029 718.88 930.309 719.18C929.589 719.46 928.729 719.5 927.749 719.3L926.769 717.14H926.069V719.62ZM937.013 714.88C937.013 713.26 937.393 712.14 938.133 711.5C938.873 710.84 939.813 710.6 940.933 710.74L942.213 713.26H942.913V710.28C942.013 709.94 941.073 709.76 940.133 709.76C938.593 709.76 937.353 710.24 936.393 711.18C935.433 712.12 934.953 713.38 934.953 715C934.953 716.62 935.433 717.9 936.393 718.84C937.373 719.78 938.533 720.24 939.873 720.24C941.173 720.24 942.293 719.84 943.253 719.04L943.073 718.38C942.173 718.74 941.293 718.92 940.413 718.92C938.233 718.92 937.013 717.36 937.013 714.88ZM947.82 709.92L947.62 709.76L944.46 710.44V711.1L945.98 711.54V718.8L944.46 719.3V720H949.34V719.3L947.82 718.8V709.92ZM945.64 706.56C945.64 707.28 946.18 707.8 946.9 707.8C947.62 707.8 948.16 707.28 948.16 706.56C948.16 705.82 947.62 705.3 946.9 705.3C946.18 705.3 945.64 705.82 945.64 706.56ZM958.854 718.38C957.874 718.74 956.934 718.92 955.994 718.92C953.814 718.92 952.814 717.72 952.794 715.18H959.194C959.494 713.5 959.274 712.18 958.574 711.22C957.874 710.24 956.814 709.76 955.414 709.76C954.154 709.76 953.054 710.24 952.114 711.18C951.194 712.12 950.734 713.46 950.734 715.2C950.734 716.82 951.174 718.06 952.074 718.94C952.974 719.8 954.114 720.24 955.454 720.24C956.674 720.24 958.074 719.78 959.034 719.04L958.854 718.38ZM955.434 710.64C956.654 710.64 957.454 711.86 957.294 714.1L952.814 714.32C952.994 711.92 953.994 710.64 955.434 710.64ZM964.089 709.92L963.889 709.76L960.729 710.44V711.1L962.249 711.54V718.8L960.729 719.3V720H965.609V719.3L964.089 718.8V712.1C964.989 711.42 965.929 711.08 966.909 711.08C968.129 711.08 968.749 711.86 968.749 713.42V718.8L967.229 719.3V720H972.109V719.3L970.589 718.8V713.14C970.589 710.8 969.289 709.76 967.449 709.76C966.269 709.76 965.189 710.22 964.209 711.14L964.089 711.1V709.92ZM975.372 714.88C975.372 713.26 975.752 712.14 976.492 711.5C977.232 710.84 978.172 710.6 979.292 710.74L980.572 713.26H981.272V710.28C980.372 709.94 979.432 709.76 978.492 709.76C976.952 709.76 975.712 710.24 974.752 711.18C973.792 712.12 973.312 713.38 973.312 715C973.312 716.62 973.792 717.9 974.752 718.84C975.732 719.78 976.892 720.24 978.232 720.24C979.532 720.24 980.652 719.84 981.612 719.04L981.432 718.38C980.532 718.74 979.652 718.92 978.772 718.92C976.592 718.92 975.372 717.36 975.372 714.88ZM991.139 718.38C990.159 718.74 989.219 718.92 988.279 718.92C986.099 718.92 985.099 717.72 985.079 715.18H991.479C991.779 713.5 991.559 712.18 990.859 711.22C990.159 710.24 989.099 709.76 987.699 709.76C986.439 709.76 985.339 710.24 984.399 711.18C983.479 712.12 983.019 713.46 983.019 715.2C983.019 716.82 983.459 718.06 984.359 718.94C985.259 719.8 986.399 720.24 987.739 720.24C988.959 720.24 990.359 719.78 991.319 719.04L991.139 718.38ZM987.719 710.64C988.939 710.64 989.739 711.86 989.579 714.1L985.099 714.32C985.279 711.92 986.279 710.64 987.719 710.64ZM1004.64 714.88V717.84C1003.84 718.5 1003.02 718.84 1002.18 718.84C1001.24 718.84 1000.78 718.38 1000.78 717.44C1000.78 716.06 1002.3 714.98 1004.64 714.88ZM1008.14 719.06C1006.86 719.24 1006.5 718.98 1006.5 718.1V713.8C1006.5 711.06 1005.08 709.76 1003.02 709.76C1001.84 709.76 1000.58 710.16 999.222 710.94L999.442 711.66C1000.64 711.2 1001.64 710.96 1002.42 710.96C1003.9 710.96 1004.64 711.98 1004.64 714.04C1000.74 714.28 998.722 715.68 998.722 717.74C998.722 719.26 999.842 720.24 1001.38 720.24C1002.5 720.24 1003.82 719.68 1004.7 718.64L1004.8 718.7C1004.94 719.64 1005.62 720.24 1006.52 720.24C1007.12 720.24 1007.66 720.04 1008.14 719.66V719.06ZM1012.11 712.1C1013.03 711.42 1013.93 711.08 1014.83 711.08C1016.41 711.08 1017.41 712.46 1017.41 715.04C1017.41 717.74 1016.07 719.16 1014.33 719.16C1013.49 719.16 1012.75 719.02 1012.11 718.72V712.1ZM1012.11 719.66C1012.87 720.04 1013.71 720.24 1014.65 720.24C1015.95 720.24 1017.07 719.78 1018.03 718.84C1018.99 717.9 1019.47 716.6 1019.47 714.96C1019.47 713.34 1019.09 712.08 1018.31 711.16C1017.55 710.22 1016.61 709.76 1015.47 709.76C1014.31 709.76 1013.23 710.22 1012.23 711.14L1012.11 711.1V709.92L1011.91 709.76L1008.75 710.44V711.1L1010.27 711.54V723.2L1008.75 723.7V724.4H1014.03V723.7L1012.11 723.2V719.66ZM1024.03 712.1C1024.95 711.42 1025.85 711.08 1026.75 711.08C1028.33 711.08 1029.33 712.46 1029.33 715.04C1029.33 717.74 1027.99 719.16 1026.25 719.16C1025.41 719.16 1024.67 719.02 1024.03 718.72V712.1ZM1024.03 719.66C1024.79 720.04 1025.63 720.24 1026.57 720.24C1027.87 720.24 1028.99 719.78 1029.95 718.84C1030.91 717.9 1031.39 716.6 1031.39 714.96C1031.39 713.34 1031.01 712.08 1030.23 711.16C1029.47 710.22 1028.53 709.76 1027.39 709.76C1026.23 709.76 1025.15 710.22 1024.15 711.14L1024.03 711.1V709.92L1023.83 709.76L1020.67 710.44V711.1L1022.19 711.54V723.2L1020.67 723.7V724.4H1025.95V723.7L1024.03 723.2V719.66ZM1035.94 703.92L1035.74 703.76L1032.58 704.44V705.1L1034.1 705.54V718.8L1032.58 719.3V720H1037.46V719.3L1035.94 718.8V703.92ZM1041.82 709.92L1041.62 709.76L1038.46 710.44V711.1L1039.98 711.54V718.8L1038.46 719.3V720H1043.34V719.3L1041.82 718.8V709.92ZM1039.64 706.56C1039.64 707.28 1040.18 707.8 1040.9 707.8C1041.62 707.8 1042.16 707.28 1042.16 706.56C1042.16 705.82 1041.62 705.3 1040.9 705.3C1040.18 705.3 1039.64 705.82 1039.64 706.56ZM1052.86 718.38C1051.88 718.74 1050.94 718.92 1050 718.92C1047.82 718.92 1046.82 717.72 1046.8 715.18H1053.2C1053.5 713.5 1053.28 712.18 1052.58 711.22C1051.88 710.24 1050.82 709.76 1049.42 709.76C1048.16 709.76 1047.06 710.24 1046.12 711.18C1045.2 712.12 1044.74 713.46 1044.74 715.2C1044.74 716.82 1045.18 718.06 1046.08 718.94C1046.98 719.8 1048.12 720.24 1049.46 720.24C1050.68 720.24 1052.08 719.78 1053.04 719.04L1052.86 718.38ZM1049.44 710.64C1050.66 710.64 1051.46 711.86 1051.3 714.1L1046.82 714.32C1047 711.92 1048 710.64 1049.44 710.64ZM1062.29 717.9C1061.37 718.58 1060.47 718.92 1059.57 718.92C1057.99 718.92 1056.99 717.54 1056.99 714.96C1056.99 712.26 1058.33 710.84 1060.07 710.84C1060.91 710.84 1061.65 710.98 1062.29 711.28V717.9ZM1062.29 710.34C1061.53 709.96 1060.69 709.76 1059.75 709.76C1058.45 709.76 1057.33 710.24 1056.37 711.18C1055.41 712.12 1054.93 713.4 1054.93 715.04C1054.93 716.66 1055.31 717.92 1056.07 718.86C1056.85 719.78 1057.79 720.24 1058.93 720.24C1060.09 720.24 1061.17 719.78 1062.17 718.86L1062.29 718.9V720.08L1062.49 720.24L1065.65 719.56V718.9L1064.13 718.46V703.92L1063.93 703.76L1060.77 704.44V705.1L1062.29 705.54V710.34ZM1078.72 718.64C1076.94 719.28 1075.38 719.14 1075.32 717.3V711.24H1078.58V710.2H1075.32V707.26H1074.64L1073.48 710.2H1071.76V711.24H1073.48V717.12C1073.48 719.18 1074.5 720.24 1076.2 720.24C1077.22 720.24 1078.12 719.92 1078.9 719.3L1078.72 718.64ZM1087.32 718.22C1086.78 718.98 1086.08 719.36 1085.26 719.36C1084.44 719.36 1083.74 718.98 1083.18 718.22C1082.64 717.44 1082.36 716.38 1082.36 715C1082.36 713.62 1082.64 712.56 1083.18 711.8C1083.74 711.02 1084.44 710.64 1085.26 710.64C1086.08 710.64 1086.78 711.02 1087.32 711.8C1087.88 712.56 1088.16 713.62 1088.16 715C1088.16 716.38 1087.88 717.44 1087.32 718.22ZM1088.76 711.16C1087.78 710.22 1086.62 709.76 1085.26 709.76C1083.9 709.76 1082.74 710.22 1081.76 711.16C1080.78 712.1 1080.3 713.38 1080.3 715C1080.3 716.62 1080.78 717.9 1081.76 718.84C1082.74 719.78 1083.9 720.24 1085.26 720.24C1086.62 720.24 1087.78 719.78 1088.76 718.84C1089.74 717.9 1090.22 716.62 1090.22 715C1090.22 713.38 1089.74 712.1 1088.76 711.16ZM857.204 750.38C856.224 750.74 855.284 750.92 854.344 750.92C852.164 750.92 851.164 749.72 851.144 747.18H857.544C857.844 745.5 857.624 744.18 856.924 743.22C856.224 742.24 855.164 741.76 853.764 741.76C852.504 741.76 851.404 742.24 850.464 743.18C849.544 744.12 849.084 745.46 849.084 747.2C849.084 748.82 849.524 750.06 850.424 750.94C851.324 751.8 852.464 752.24 853.804 752.24C855.024 752.24 856.424 751.78 857.384 751.04L857.204 750.38ZM853.784 742.64C855.004 742.64 855.804 743.86 855.644 746.1L851.164 746.32C851.344 743.92 852.344 742.64 853.784 742.64ZM862.439 741.92L862.239 741.76L859.079 742.44V743.1L860.599 743.54V750.8L859.079 751.3V752H863.959V751.3L862.439 750.8V744.1C863.339 743.42 864.279 743.08 865.259 743.08C866.479 743.08 867.099 743.86 867.099 745.42V750.8L865.579 751.3V752H870.459V751.3L868.939 750.8V745.14C868.939 742.8 867.639 741.76 865.799 741.76C864.619 741.76 863.539 742.22 862.559 743.14L862.439 743.1V741.92ZM877.942 745.14C877.942 746.68 877.022 747.6 875.842 747.6C874.642 747.6 873.722 746.68 873.722 745.14C873.722 743.54 874.642 742.64 875.842 742.64C877.042 742.64 877.942 743.56 877.942 745.14ZM874.602 752.06H876.922C878.362 752.06 879.062 752.72 879.062 753.54C879.062 754.84 878.062 755.7 875.882 755.7C873.262 755.74 872.642 753.56 873.862 751.98C874.042 752.04 874.282 752.06 874.602 752.06ZM879.342 743.32L880.682 742.7V742H877.422C876.922 741.84 876.382 741.76 875.822 741.76C874.702 741.76 873.742 742.06 872.942 742.66C872.162 743.26 871.762 744.08 871.762 745.14C871.762 746.52 872.562 747.56 873.842 748.1V748.18C873.162 748.68 872.742 749.28 872.562 749.96C872.402 750.64 872.602 751.2 873.182 751.64V751.74C871.902 752.3 871.262 753.1 871.262 754.14C871.262 755.6 872.762 756.64 875.342 756.64C877.042 756.64 878.402 756.28 879.402 755.54C880.402 754.8 880.902 753.96 880.902 753C880.902 751.24 879.582 750.28 877.182 750.28H875.042C873.782 750.28 873.862 749.2 874.702 748.36C875.062 748.44 875.442 748.48 875.822 748.48C876.962 748.48 877.922 748.18 878.702 747.6C879.502 747 879.902 746.18 879.902 745.14C879.902 744.52 879.722 743.94 879.342 743.4V743.32ZM888.324 746.88V749.84C887.524 750.5 886.704 750.84 885.864 750.84C884.924 750.84 884.464 750.38 884.464 749.44C884.464 748.06 885.984 746.98 888.324 746.88ZM891.824 751.06C890.544 751.24 890.184 750.98 890.184 750.1V745.8C890.184 743.06 888.764 741.76 886.704 741.76C885.524 741.76 884.264 742.16 882.904 742.94L883.124 743.66C884.324 743.2 885.324 742.96 886.104 742.96C887.584 742.96 888.324 743.98 888.324 746.04C884.424 746.28 882.404 747.68 882.404 749.74C882.404 751.26 883.524 752.24 885.064 752.24C886.184 752.24 887.504 751.68 888.384 750.64L888.484 750.7C888.624 751.64 889.304 752.24 890.204 752.24C890.804 752.24 891.344 752.04 891.824 751.66V751.06ZM899.114 745.14C899.114 746.68 898.194 747.6 897.014 747.6C895.814 747.6 894.894 746.68 894.894 745.14C894.894 743.54 895.814 742.64 897.014 742.64C898.214 742.64 899.114 743.56 899.114 745.14ZM895.774 752.06H898.094C899.534 752.06 900.234 752.72 900.234 753.54C900.234 754.84 899.234 755.7 897.054 755.7C894.434 755.74 893.814 753.56 895.034 751.98C895.214 752.04 895.454 752.06 895.774 752.06ZM900.514 743.32L901.854 742.7V742H898.594C898.094 741.84 897.554 741.76 896.994 741.76C895.874 741.76 894.914 742.06 894.114 742.66C893.334 743.26 892.934 744.08 892.934 745.14C892.934 746.52 893.734 747.56 895.014 748.1V748.18C894.334 748.68 893.914 749.28 893.734 749.96C893.574 750.64 893.774 751.2 894.354 751.64V751.74C893.074 752.3 892.434 753.1 892.434 754.14C892.434 755.6 893.934 756.64 896.514 756.64C898.214 756.64 899.574 756.28 900.574 755.54C901.574 754.8 902.074 753.96 902.074 753C902.074 751.24 900.754 750.28 898.354 750.28H896.214C894.954 750.28 895.034 749.2 895.874 748.36C896.234 748.44 896.614 748.48 896.994 748.48C898.134 748.48 899.094 748.18 899.874 747.6C900.674 747 901.074 746.18 901.074 745.14C901.074 744.52 900.894 743.94 900.514 743.4V743.32ZM911.305 750.38C910.325 750.74 909.385 750.92 908.445 750.92C906.265 750.92 905.265 749.72 905.245 747.18H911.645C911.945 745.5 911.725 744.18 911.025 743.22C910.325 742.24 909.265 741.76 907.865 741.76C906.605 741.76 905.505 742.24 904.565 743.18C903.645 744.12 903.185 745.46 903.185 747.2C903.185 748.82 903.625 750.06 904.525 750.94C905.425 751.8 906.565 752.24 907.905 752.24C909.125 752.24 910.525 751.78 911.485 751.04L911.305 750.38ZM907.885 742.64C909.105 742.64 909.905 743.86 909.745 746.1L905.265 746.32C905.445 743.92 906.445 742.64 907.885 742.64ZM922.541 744.18C923.401 743.44 924.281 743.08 925.221 743.08C926.341 743.08 926.901 743.86 926.901 745.42V750.8L925.481 751.3V752H930.261V751.3L928.741 750.8V745.14C928.741 742.8 927.501 741.76 925.801 741.76C924.581 741.76 923.441 742.3 922.381 743.38L922.261 743.32C921.841 742.28 920.981 741.76 919.701 741.76C918.601 741.76 917.581 742.22 916.661 743.14L916.541 743.1V741.92L916.341 741.76L913.181 742.44V743.1L914.701 743.54V750.8L913.181 751.3V752H917.961V751.3L916.541 750.8V744.1C917.361 743.42 918.221 743.08 919.081 743.08C920.221 743.08 920.801 743.86 920.801 745.42V750.8L919.381 751.3V752H924.061V751.3L922.641 750.8V745.5C922.641 744.96 922.601 744.52 922.541 744.18ZM939.587 750.38C938.607 750.74 937.667 750.92 936.727 750.92C934.547 750.92 933.547 749.72 933.527 747.18H939.927C940.227 745.5 940.007 744.18 939.307 743.22C938.607 742.24 937.547 741.76 936.147 741.76C934.887 741.76 933.787 742.24 932.847 743.18C931.927 744.12 931.467 745.46 931.467 747.2C931.467 748.82 931.907 750.06 932.807 750.94C933.707 751.8 934.847 752.24 936.187 752.24C937.407 752.24 938.807 751.78 939.767 751.04L939.587 750.38ZM936.167 742.64C937.387 742.64 938.187 743.86 938.027 746.1L933.547 746.32C933.727 743.92 934.727 742.64 936.167 742.64ZM944.822 741.92L944.622 741.76L941.462 742.44V743.1L942.982 743.54V750.8L941.462 751.3V752H946.342V751.3L944.822 750.8V744.1C945.722 743.42 946.662 743.08 947.642 743.08C948.862 743.08 949.482 743.86 949.482 745.42V750.8L947.962 751.3V752H952.842V751.3L951.322 750.8V745.14C951.322 742.8 950.022 741.76 948.182 741.76C947.002 741.76 945.922 742.22 944.942 743.14L944.822 743.1V741.92ZM960.605 750.64C958.825 751.28 957.265 751.14 957.205 749.3V743.24H960.465V742.2H957.205V739.26H956.525L955.365 742.2H953.645V743.24H955.365V749.12C955.365 751.18 956.385 752.24 958.085 752.24C959.105 752.24 960.005 751.92 960.785 751.3L960.605 750.64ZM973.617 746.88V749.84C972.817 750.5 971.997 750.84 971.157 750.84C970.217 750.84 969.757 750.38 969.757 749.44C969.757 748.06 971.277 746.98 973.617 746.88ZM977.117 751.06C975.837 751.24 975.477 750.98 975.477 750.1V745.8C975.477 743.06 974.057 741.76 971.997 741.76C970.817 741.76 969.557 742.16 968.197 742.94L968.417 743.66C969.617 743.2 970.617 742.96 971.397 742.96C972.877 742.96 973.617 743.98 973.617 746.04C969.717 746.28 967.697 747.68 967.697 749.74C967.697 751.26 968.817 752.24 970.357 752.24C971.477 752.24 972.797 751.68 973.677 750.64L973.777 750.7C973.917 751.64 974.597 752.24 975.497 752.24C976.097 752.24 976.637 752.04 977.117 751.66V751.06ZM981.287 741.92L981.087 741.76L977.927 742.44V743.1L979.447 743.54V750.8L977.927 751.3V752H982.807V751.3L981.287 750.8V744.1C982.187 743.42 983.127 743.08 984.107 743.08C985.327 743.08 985.947 743.86 985.947 745.42V750.8L984.427 751.3V752H989.307V751.3L987.787 750.8V745.14C987.787 742.8 986.487 741.76 984.647 741.76C983.467 741.76 982.387 742.22 981.407 743.14L981.287 743.1V741.92ZM997.869 749.9C996.949 750.58 996.049 750.92 995.149 750.92C993.569 750.92 992.569 749.54 992.569 746.96C992.569 744.26 993.909 742.84 995.649 742.84C996.489 742.84 997.229 742.98 997.869 743.28V749.9ZM997.869 742.34C997.109 741.96 996.269 741.76 995.329 741.76C994.029 741.76 992.909 742.24 991.949 743.18C990.989 744.12 990.509 745.4 990.509 747.04C990.509 748.66 990.889 749.92 991.649 750.86C992.429 751.78 993.369 752.24 994.509 752.24C995.669 752.24 996.749 751.78 997.749 750.86L997.869 750.9V752.08L998.069 752.24L1001.23 751.56V750.9L999.709 750.46V735.92L999.509 735.76L996.349 736.44V737.1L997.869 737.54V742.34ZM1009.8 746.88C1009.8 745.26 1010.18 744.14 1010.92 743.5C1011.66 742.84 1012.6 742.6 1013.72 742.74L1015 745.26H1015.7V742.28C1014.8 741.94 1013.86 741.76 1012.92 741.76C1011.38 741.76 1010.14 742.24 1009.18 743.18C1008.22 744.12 1007.74 745.38 1007.74 747C1007.74 748.62 1008.22 749.9 1009.18 750.84C1010.16 751.78 1011.32 752.24 1012.66 752.24C1013.96 752.24 1015.08 751.84 1016.04 751.04L1015.86 750.38C1014.96 750.74 1014.08 750.92 1013.2 750.92C1011.02 750.92 1009.8 749.36 1009.8 746.88ZM1024.46 750.22C1023.92 750.98 1023.22 751.36 1022.4 751.36C1021.58 751.36 1020.88 750.98 1020.32 750.22C1019.78 749.44 1019.5 748.38 1019.5 747C1019.5 745.62 1019.78 744.56 1020.32 743.8C1020.88 743.02 1021.58 742.64 1022.4 742.64C1023.22 742.64 1023.92 743.02 1024.46 743.8C1025.02 744.56 1025.3 745.62 1025.3 747C1025.3 748.38 1025.02 749.44 1024.46 750.22ZM1025.9 743.16C1024.92 742.22 1023.76 741.76 1022.4 741.76C1021.04 741.76 1019.88 742.22 1018.9 743.16C1017.92 744.1 1017.44 745.38 1017.44 747C1017.44 748.62 1017.92 749.9 1018.9 750.84C1019.88 751.78 1021.04 752.24 1022.4 752.24C1023.76 752.24 1024.92 751.78 1025.9 750.84C1026.88 749.9 1027.36 748.62 1027.36 747C1027.36 745.38 1026.88 744.1 1025.9 743.16ZM1032.13 741.92L1031.93 741.76L1028.77 742.44V743.1L1030.29 743.54V750.8L1028.77 751.3V752H1033.65V751.3L1032.13 750.8V744.1C1033.03 743.42 1033.97 743.08 1034.95 743.08C1036.17 743.08 1036.79 743.86 1036.79 745.42V750.8L1035.27 751.3V752H1040.15V751.3L1038.63 750.8V745.14C1038.63 742.8 1037.33 741.76 1035.49 741.76C1034.31 741.76 1033.23 742.22 1032.25 743.14L1032.13 743.1V741.92ZM1051.55 742.7V742H1047.61V742.7L1049.19 743.24L1047.29 748.12L1046.47 750.18H1046.39L1045.59 748.12L1043.61 743.2L1045.17 742.7V742H1040.35V742.7L1041.59 743.2L1045.23 752.12H1046.69L1050.37 743.24L1051.55 742.7ZM1060.27 750.38C1059.29 750.74 1058.35 750.92 1057.41 750.92C1055.23 750.92 1054.23 749.72 1054.21 747.18H1060.61C1060.91 745.5 1060.69 744.18 1059.99 743.22C1059.29 742.24 1058.23 741.76 1056.83 741.76C1055.57 741.76 1054.47 742.24 1053.53 743.18C1052.61 744.12 1052.15 745.46 1052.15 747.2C1052.15 748.82 1052.59 750.06 1053.49 750.94C1054.39 751.8 1055.53 752.24 1056.87 752.24C1058.09 752.24 1059.49 751.78 1060.45 751.04L1060.27 750.38ZM1056.85 742.64C1058.07 742.64 1058.87 743.86 1058.71 746.1L1054.23 746.32C1054.41 743.92 1055.41 742.64 1056.85 742.64ZM1065.51 743.28V741.92L1065.31 741.76L1062.15 742.44V743.1L1063.67 743.54V750.8L1062.15 751.3V752H1067.43V751.3L1065.51 750.8V744.3C1066.09 743.74 1066.71 743.46 1067.37 743.46C1068.03 743.46 1068.55 743.7 1068.89 744.18L1069.41 744.04V741.84C1067.95 741.54 1066.49 742.22 1065.63 743.34L1065.51 743.28ZM1070.75 751.62C1071.69 752.04 1072.75 752.24 1073.91 752.24C1075.05 752.24 1075.99 751.98 1076.75 751.48C1077.51 750.96 1077.89 750.2 1077.89 749.2C1077.89 747.86 1077.03 747 1075.93 746.54C1074.37 745.88 1072.37 745.48 1072.37 744.1C1072.37 743.54 1072.69 743.12 1073.33 742.86C1073.97 742.58 1074.75 742.54 1075.67 742.74L1076.65 744.86H1077.35V742.38C1076.45 741.96 1075.43 741.76 1074.31 741.76C1073.33 741.76 1072.49 742 1071.79 742.48C1071.09 742.96 1070.75 743.68 1070.75 744.64C1070.75 745.98 1071.59 746.86 1072.63 747.32C1074.15 747.94 1076.07 748.38 1076.07 749.7C1076.07 750.4 1075.71 750.88 1074.99 751.18C1074.27 751.46 1073.41 751.5 1072.43 751.3L1071.45 749.14H1070.75V751.62ZM1082.79 741.92L1082.59 741.76L1079.43 742.44V743.1L1080.95 743.54V750.8L1079.43 751.3V752H1084.31V751.3L1082.79 750.8V741.92ZM1080.61 738.56C1080.61 739.28 1081.15 739.8 1081.87 739.8C1082.59 739.8 1083.13 739.28 1083.13 738.56C1083.13 737.82 1082.59 737.3 1081.87 737.3C1081.15 737.3 1080.61 737.82 1080.61 738.56ZM1092.72 750.22C1092.18 750.98 1091.48 751.36 1090.66 751.36C1089.84 751.36 1089.14 750.98 1088.58 750.22C1088.04 749.44 1087.76 748.38 1087.76 747C1087.76 745.62 1088.04 744.56 1088.58 743.8C1089.14 743.02 1089.84 742.64 1090.66 742.64C1091.48 742.64 1092.18 743.02 1092.72 743.8C1093.28 744.56 1093.56 745.62 1093.56 747C1093.56 748.38 1093.28 749.44 1092.72 750.22ZM1094.16 743.16C1093.18 742.22 1092.02 741.76 1090.66 741.76C1089.3 741.76 1088.14 742.22 1087.16 743.16C1086.18 744.1 1085.7 745.38 1085.7 747C1085.7 748.62 1086.18 749.9 1087.16 750.84C1088.14 751.78 1089.3 752.24 1090.66 752.24C1092.02 752.24 1093.18 751.78 1094.16 750.84C1095.14 749.9 1095.62 748.62 1095.62 747C1095.62 745.38 1095.14 744.1 1094.16 743.16ZM1100.39 741.92L1100.19 741.76L1097.03 742.44V743.1L1098.55 743.54V750.8L1097.03 751.3V752H1101.91V751.3L1100.39 750.8V744.1C1101.29 743.42 1102.23 743.08 1103.21 743.08C1104.43 743.08 1105.05 743.86 1105.05 745.42V750.8L1103.53 751.3V752H1108.41V751.3L1106.89 750.8V745.14C1106.89 742.8 1105.59 741.76 1103.75 741.76C1102.57 741.76 1101.49 742.22 1100.51 743.14L1100.39 743.1V741.92ZM1109.75 751.62C1110.69 752.04 1111.75 752.24 1112.91 752.24C1114.05 752.24 1114.99 751.98 1115.75 751.48C1116.51 750.96 1116.89 750.2 1116.89 749.2C1116.89 747.86 1116.03 747 1114.93 746.54C1113.37 745.88 1111.37 745.48 1111.37 744.1C1111.37 743.54 1111.69 743.12 1112.33 742.86C1112.97 742.58 1113.75 742.54 1114.67 742.74L1115.65 744.86H1116.35V742.38C1115.45 741.96 1114.43 741.76 1113.31 741.76C1112.33 741.76 1111.49 742 1110.79 742.48C1110.09 742.96 1109.75 743.68 1109.75 744.64C1109.75 745.98 1110.59 746.86 1111.63 747.32C1113.15 747.94 1115.07 748.38 1115.07 749.7C1115.07 750.4 1114.71 750.88 1113.99 751.18C1113.27 751.46 1112.41 751.5 1111.43 751.3L1110.45 749.14H1109.75V751.62Z" fill="#121C25"/>
<path d="M981.309 676.472V588.25" stroke="#C4C6C8" stroke-width="2" stroke-linecap="round" stroke-linejoin="round" stroke-dasharray="1 8"/>
<ellipse cx="981.309" cy="677.427" rx="3.75" ry="3.82301" fill="#C4C6C8"/>
<path d="M718.559 305.5C718.559 311.169 716.808 319.253 713.403 329.116C710.005 338.959 704.986 350.5 698.513 363.058C685.567 388.175 666.825 417.311 643.665 444.991C597.304 500.401 533.434 549.75 463.059 549.75C321.908 549.75 207.559 440.354 207.559 305.5C207.559 170.646 321.908 61.25 463.059 61.25C533.434 61.25 597.304 110.599 643.665 166.009C666.825 193.689 685.567 222.825 698.513 247.942C704.986 260.5 710.005 272.041 713.403 281.884C716.808 291.747 718.559 299.831 718.559 305.5Z" stroke="black" stroke-width="2"/>
<path d="M1232.31 305.5C1232.31 440.352 1117.79 549.75 976.434 549.75C905.936 549.75 841.97 502.908 795.555 448.779C772.364 421.734 753.6 392.92 740.638 367.336C727.654 341.71 720.559 319.457 720.559 305.5C720.559 291.543 727.654 269.29 740.638 243.664C753.6 218.08 772.364 189.266 795.555 162.221C841.97 108.092 905.936 61.25 976.434 61.25C1117.79 61.25 1232.31 170.648 1232.31 305.5Z" stroke="black" stroke-width="2"/>
<circle cx="719.5" cy="305.5" r="137.5" fill="#EEEEEE"/>
<path d="M657.122 285V299H661.542C667.142 299 670.102 295.98 670.102 292C670.102 288.02 667.142 285 661.542 285H657.122ZM660.522 296.14V287.86H661.222C664.722 287.86 666.702 289.26 666.702 292C666.702 294.74 664.722 296.14 661.222 296.14H660.522ZM679.698 296.04V293.38H685.898V290.42H679.698V287.96H686.078V285H676.298V299H686.158V296.04H679.698ZM702.226 294.7C702.226 292.36 700.906 291.2 698.686 290.58L696.886 290.08C696.006 289.84 695.426 289.52 695.426 288.74C695.426 288 695.966 287.48 696.946 287.48C697.966 287.48 698.486 288.26 698.526 289.14H701.626C701.546 286.7 699.766 284.72 696.966 284.72C694.226 284.72 692.086 286.28 692.086 289.08C692.086 291.28 693.566 292.42 695.666 292.98L697.526 293.48C698.426 293.72 698.886 294.22 698.886 294.98C698.886 295.82 698.146 296.52 697.106 296.52C695.786 296.52 695.226 295.72 695.106 294.7H691.866C692.106 297.44 693.906 299.28 697.026 299.28C699.566 299.28 702.226 297.6 702.226 294.7ZM711.821 299V285H708.421V299H711.821ZM724.868 294.32H729.248C728.728 295.54 727.468 296.46 725.628 296.46C723.108 296.46 721.528 294.8 721.528 292C721.528 289.46 723.088 287.64 725.668 287.64C727.568 287.64 728.688 288.64 729.288 289.84H732.648C731.748 286.7 729.188 284.72 725.648 284.72C721.028 284.72 718.128 287.96 718.128 292C718.128 295.96 720.988 299.28 725.648 299.28C730.048 299.28 732.968 296.14 732.968 291.82V291.54H724.868V294.32ZM749.293 293.34L742.173 285H739.173V299H742.573V290.68L749.693 299H752.693V285H749.293V293.34ZM778.446 299H781.886L779.126 295.2L781.206 290.94H778.026L777.266 292.6L773.746 287.72H778.446V285H768.006V285.12L771.666 289.98C769.386 290.64 767.906 292.18 767.906 294.6C767.906 297.58 770.226 299.28 773.206 299.28C774.886 299.28 776.486 298.7 777.466 297.72L778.446 299ZM773.446 296.74C771.986 296.74 771.146 295.88 771.146 294.54C771.146 293.16 772.086 292.3 773.126 291.94L775.846 295.54C775.206 296.38 774.506 296.74 773.446 296.74ZM623.183 309V323H627.603C633.203 323 636.163 319.98 636.163 316C636.163 312.02 633.203 309 627.603 309H623.183ZM626.583 320.14V311.86H627.283C630.783 311.86 632.763 313.26 632.763 316C632.763 318.74 630.783 320.14 627.283 320.14H626.583ZM645.758 320.04V317.38H651.958V314.42H645.758V311.96H652.138V309H642.358V323H652.218V320.04H645.758ZM671.106 309H667.446L664.166 317.88L660.886 309H657.226L662.946 323H665.386L671.106 309ZM680.008 320.04V317.38H686.208V314.42H680.008V311.96H686.388V309H676.608V323H686.468V320.04H680.008ZM696.176 309H692.776V323H702.136V320.04H696.176V309ZM714.788 308.72C710.208 308.72 707.348 311.98 707.348 316C707.348 320.02 710.208 323.28 714.788 323.28C719.368 323.28 722.248 320.02 722.248 316C722.248 311.98 719.368 308.72 714.788 308.72ZM714.788 320.36C712.108 320.36 710.748 318.22 710.748 316C710.748 313.76 712.108 311.64 714.788 311.64C717.468 311.64 718.848 313.76 718.848 316C718.848 318.22 717.468 320.36 714.788 320.36ZM735.032 319.38C737.992 319.38 740.192 317.12 740.192 314.2C740.192 311.28 737.992 309 735.032 309H728.452V323H731.852V319.38H735.032ZM731.852 316.46V311.92H734.552C735.812 311.92 736.792 312.84 736.792 314.2C736.792 315.56 735.812 316.46 734.552 316.46H731.852ZM748.365 309H746.085V323H749.365V316.22L753.905 323.2L758.445 316.22V323H761.725V309H759.445L753.905 318.04L748.365 309ZM771.923 320.04V317.38H778.123V314.42H771.923V311.96H778.303V309H768.523V323H778.383V320.04H771.923ZM794.811 317.34L787.691 309H784.691V323H788.091V314.68L795.211 323H798.211V309H794.811V317.34ZM804.279 311.96H808.219V323H811.619V311.96H815.559V309H804.279V311.96Z" fill="black"/>
<circle r="14.3465" transform="matrix(0.707097 0.707116 -0.707097 0.707116 460.097 553.04)" fill="white"/>
<rect width="11.4772" height="2.25" transform="matrix(-0.707097 0.707116 0.707097 0.707116 462.01 543.765)" fill="black"/>
<rect width="11.4772" height="2.25" transform="matrix(0.707097 0.707116 0.707097 -0.707116 453.898 551.879)" fill="black"/>
<circle r="14.3465" transform="matrix(-0.866032 0.499988 -0.500012 -0.866019 206.598 289.04)" fill="white"/>
<rect width="11.4772" height="2.25" transform="matrix(-0.500012 -0.866019 -0.866032 0.499988 215.061 293.287)" fill="black"/>
<rect width="11.4772" height="2.25" transform="matrix(-0.866032 0.499988 0.500012 0.866019 209.323 283.352)" fill="black"/>
<circle r="14.3465" transform="matrix(-0.707097 -0.707116 0.707097 -0.707116 449.597 60.2889)" fill="white"/>
<rect width="11.4772" height="2.25" transform="matrix(0.707097 -0.707116 -0.707097 -0.707116 447.684 69.5645)" fill="black"/>
<rect width="11.4772" height="2.25" transform="matrix(-0.707097 -0.707116 -0.707097 0.707116 455.796 61.4492)" fill="black"/>
<circle r="14.3465" transform="matrix(-0.707097 -0.707116 0.707097 -0.707116 985.097 60.2889)" fill="white"/>
<rect width="11.4772" height="2.25" transform="matrix(0.707097 -0.707116 -0.707097 -0.707116 983.184 69.5635)" fill="black"/>
<rect width="11.4772" height="2.25" transform="matrix(-0.707097 -0.707116 -0.707097 0.707116 991.296 61.4492)" fill="black"/>
<circle r="14.3465" transform="matrix(0.707116 -0.707097 0.707116 0.707097 1233.35 281.539)" fill="white"/>
<rect width="11.4772" height="2.25" transform="matrix(0.707116 0.707097 0.707116 -0.707097 1224.07 279.626)" fill="black"/>
<rect width="11.4772" height="2.25" transform="matrix(0.707116 -0.707097 -0.707116 -0.707097 1232.19 287.738)" fill="black"/>
<circle r="14.3465" transform="matrix(0.707097 0.707116 -0.707097 0.707116 983.597 550.79)" fill="white"/>
<rect width="11.4772" height="2.25" transform="matrix(-0.707097 0.707116 0.707097 0.707116 985.51 541.515)" fill="black"/>
<rect width="11.4772" height="2.25" transform="matrix(0.707097 0.707116 0.707097 -0.707116 977.398 549.629)" fill="black"/>
<ellipse cx="719.75" cy="463.81" rx="3.75" ry="3.81022" fill="black"/>
<ellipse cx="719.75" cy="557.69" rx="3.75" ry="3.81022" fill="black"/>
<path d="M719.752 557.812V463.812" stroke="black" stroke-width="2" stroke-linecap="round" stroke-linejoin="round" stroke-dasharray="1 8"/>
</svg>
